%FSLAX24Y24*%
%MOIN*%
G70*
G01*
G75*
G04 Layer_Color=2752767*
%ADD10C,0.0100*%
%ADD11C,0.0394*%
%ADD12C,0.0551*%
%ADD13C,0.0591*%
%ADD14R,0.0591X0.0591*%
%ADD15O,0.0591X0.1575*%
%ADD16O,0.1575X0.0591*%
%ADD17O,0.0591X0.1772*%
%ADD18O,0.1575X0.0787*%
%ADD19O,0.0787X0.1575*%
%ADD20O,0.0787X0.1772*%
%ADD21R,0.0492X0.0492*%
%ADD22C,0.0492*%
%ADD23R,0.0492X0.0492*%
%ADD24R,0.0728X0.0728*%
%ADD25C,0.0728*%
%ADD26C,0.0472*%
%ADD27C,0.0787*%
%ADD28R,0.0787X0.0787*%
%ADD29R,0.0591X0.0591*%
%ADD30C,0.0079*%
%ADD31C,0.0098*%
%ADD32C,0.0236*%
%ADD33C,0.0059*%
%ADD34R,0.1102X0.0315*%
%ADD35C,0.0474*%
%ADD36C,0.0631*%
%ADD37C,0.0671*%
%ADD38R,0.0671X0.0671*%
%ADD39O,0.0671X0.1655*%
%ADD40O,0.1655X0.0671*%
%ADD41O,0.0671X0.1852*%
%ADD42O,0.1655X0.0867*%
%ADD43O,0.0867X0.1655*%
%ADD44O,0.0867X0.1852*%
%ADD45R,0.0572X0.0572*%
%ADD46C,0.0572*%
%ADD47R,0.0572X0.0572*%
%ADD48R,0.0808X0.0808*%
%ADD49C,0.0808*%
%ADD50C,0.0552*%
%ADD51C,0.0867*%
%ADD52R,0.0867X0.0867*%
%ADD53R,0.0671X0.0671*%
%ADD54C,0.0394*%
%ADD55C,0.0012*%
%ADD56C,0.0794*%
%ADD57C,0.0039*%
%ADD58C,0.0118*%
%ADD59C,0.0067*%
D55*
X33167Y39450D02*
Y39850D01*
X32767D01*
Y39450D01*
X33167D01*
X43667Y38800D02*
X43867Y39200D01*
X43467D01*
X43667Y38800D01*
Y37800D02*
X43867Y38200D01*
X43467D01*
X43667Y37800D01*
X44114Y45400D02*
X44014Y45500D01*
X43914D01*
X44014Y45600D01*
X43914Y45700D01*
X44014D01*
X44114Y45800D01*
X44214Y45700D01*
X44314D01*
X44214Y45600D01*
X44314Y45500D01*
X44214D01*
X44114Y45400D01*
X42933Y43432D02*
X42833Y43531D01*
X42733D01*
X42833Y43632D01*
X42733Y43731D01*
X42833D01*
X42933Y43832D01*
X43033Y43731D01*
X43133D01*
X43033Y43632D01*
X43133Y43531D01*
X43033D01*
X42933Y43432D01*
X41873Y45400D02*
X41773Y45600D01*
X41873Y45800D01*
X41673Y45700D01*
X41473Y45800D01*
X41573Y45600D01*
X41473Y45400D01*
X41673Y45500D01*
X41873Y45400D01*
X23573Y45300D02*
Y45200D01*
X23373D01*
Y45300D01*
X23273D01*
Y45500D01*
X23373D01*
Y45600D01*
X23573D01*
Y45500D01*
X23673D01*
Y45300D01*
X23573D01*
X24361D02*
Y45200D01*
X24161D01*
Y45300D01*
X24061D01*
Y45500D01*
X24161D01*
Y45600D01*
X24361D01*
Y45500D01*
X24461D01*
Y45300D01*
X24361D01*
X26561Y37900D02*
Y37800D01*
X26361D01*
Y37900D01*
X26261D01*
Y38100D01*
X26361D01*
Y38200D01*
X26561D01*
Y38100D01*
X26661D01*
Y37900D01*
X26561D01*
X25773D02*
Y37800D01*
X25573D01*
Y37900D01*
X25473D01*
Y38100D01*
X25573D01*
Y38200D01*
X25773D01*
Y38100D01*
X25873D01*
Y37900D01*
X25773D01*
X23367Y39306D02*
Y39206D01*
X23167D01*
Y39306D01*
X23067D01*
Y39506D01*
X23167D01*
Y39606D01*
X23367D01*
Y39506D01*
X23467D01*
Y39306D01*
X23367D01*
Y40094D02*
Y39994D01*
X23167D01*
Y40094D01*
X23067D01*
Y40294D01*
X23167D01*
Y40394D01*
X23367D01*
Y40294D01*
X23467D01*
Y40094D01*
X23367D01*
X39173Y38900D02*
Y38800D01*
X38973D01*
Y38900D01*
X38873D01*
Y39100D01*
X38973D01*
Y39200D01*
X39173D01*
Y39100D01*
X39273D01*
Y38900D01*
X39173D01*
X39961D02*
Y38800D01*
X39761D01*
Y38900D01*
X39661D01*
Y39100D01*
X39761D01*
Y39200D01*
X39961D01*
Y39100D01*
X40061D01*
Y38900D01*
X39961D01*
X36143Y45400D02*
X36043D01*
X35943Y45500D01*
X35843Y45400D01*
X35743D01*
Y45500D01*
X35843Y45600D01*
X35743Y45700D01*
Y45800D01*
X35843D01*
X35943Y45700D01*
X36043Y45800D01*
X36143D01*
Y45700D01*
X36043Y45600D01*
X36143Y45500D01*
Y45400D01*
X33191D02*
X33091D01*
X32991Y45500D01*
X32891Y45400D01*
X32791D01*
Y45500D01*
X32891Y45600D01*
X32791Y45700D01*
Y45800D01*
X32891D01*
X32991Y45700D01*
X33091Y45800D01*
X33191D01*
Y45700D01*
X33091Y45600D01*
X33191Y45500D01*
Y45400D01*
X32667Y32700D02*
X32467Y32900D01*
X32267Y32700D01*
X32467Y32500D01*
X32667Y32700D01*
Y33700D02*
X32467Y33900D01*
X32267Y33700D01*
X32467Y33500D01*
X32667Y33700D01*
Y36500D02*
X32467Y36700D01*
X32267Y36500D01*
X32467Y36300D01*
X32667Y36500D01*
Y37500D02*
X32467Y37700D01*
X32267Y37500D01*
X32467Y37300D01*
X32667Y37500D01*
X39667Y45500D02*
X39467Y45700D01*
X39267Y45500D01*
X39467Y45300D01*
X39667Y45500D01*
Y44500D02*
X39467Y44700D01*
X39267Y44500D01*
X39467Y44300D01*
X39667Y44500D01*
X41267Y35859D02*
Y36259D01*
X40867D01*
Y35859D01*
X41267D01*
X41187Y35939D02*
Y36179D01*
X40947D01*
Y35939D01*
X41187D01*
X41267Y31741D02*
Y32141D01*
X40867D01*
Y31741D01*
X41267D01*
X41187Y31821D02*
Y32061D01*
X40947D01*
Y31821D01*
X41187D01*
X43867Y31541D02*
Y31941D01*
X43467D01*
Y31541D01*
X43867D01*
X43787Y31621D02*
Y31861D01*
X43547D01*
Y31621D01*
X43787D01*
X43867Y35659D02*
Y36059D01*
X43467D01*
Y35659D01*
X43867D01*
X43787Y35739D02*
Y35979D01*
X43547D01*
Y35739D01*
X43787D01*
X35867Y31541D02*
Y31941D01*
X35467D01*
Y31541D01*
X35867D01*
X35787Y31621D02*
Y31861D01*
X35547D01*
Y31621D01*
X35787D01*
X35867Y35659D02*
Y36059D01*
X35467D01*
Y35659D01*
X35867D01*
X35787Y35739D02*
Y35979D01*
X35547D01*
Y35739D01*
X35787D01*
X39067Y31541D02*
Y31941D01*
X38667D01*
Y31541D01*
X39067D01*
X38987Y31621D02*
Y31861D01*
X38747D01*
Y31621D01*
X38987D01*
X39067Y35659D02*
Y36059D01*
X38667D01*
Y35659D01*
X39067D01*
X38987Y35739D02*
Y35979D01*
X38747D01*
Y35739D01*
X38987D01*
X20067Y45400D02*
X20267Y45800D01*
X19867D01*
X20067Y45400D01*
Y46400D02*
X20267Y46800D01*
X19867D01*
X20067Y46400D01*
X39067Y41800D02*
X39267Y42200D01*
X38867D01*
X39067Y41800D01*
X40067D02*
X40267Y42200D01*
X39867D01*
X40067Y41800D01*
X41067D02*
X41267Y42200D01*
X40867D01*
X41067Y41800D01*
X42067D02*
X42267Y42200D01*
X41867D01*
X42067Y41800D01*
X43067D02*
X43267Y42200D01*
X42867D01*
X43067Y41800D01*
X44067D02*
X44267Y42200D01*
X43867D01*
X44067Y41800D01*
X27167Y35300D02*
X27367Y35700D01*
X26967D01*
X27167Y35300D01*
Y34300D02*
X27367Y34700D01*
X26967D01*
X27167Y34300D01*
Y33300D02*
X27367Y33700D01*
X26967D01*
X27167Y33300D01*
Y32300D02*
X27367Y32700D01*
X26967D01*
X27167Y32300D01*
X24167Y35300D02*
X24367Y35700D01*
X23967D01*
X24167Y35300D01*
Y34300D02*
X24367Y34700D01*
X23967D01*
X24167Y34300D01*
Y33300D02*
X24367Y33700D01*
X23967D01*
X24167Y33300D01*
Y32300D02*
X24367Y32700D01*
X23967D01*
X24167Y32300D01*
D59*
X20067Y38900D02*
G03*
X20067Y38900I200J0D01*
G01*
Y35900D02*
G03*
X20067Y35900I200J0D01*
G01*
Y44100D02*
G03*
X20067Y44100I200J0D01*
G01*
Y41100D02*
G03*
X20067Y41100I200J0D01*
G01*
X28967Y45600D02*
G03*
X28967Y45600I200J0D01*
G01*
X25967D02*
G03*
X25967Y45600I200J0D01*
G01*
X28767Y43600D02*
G03*
X28767Y43600I200J0D01*
G01*
X25767D02*
G03*
X25767Y43600I200J0D01*
G01*
X36467Y37100D02*
G03*
X36467Y37100I200J0D01*
G01*
Y40100D02*
G03*
X36467Y40100I200J0D01*
G01*
M02*
