%FSLAX24Y24*%
%MOIN*%
G70*
G01*
G75*
%ADD10C,0.0100*%
%ADD11C,0.0394*%
%ADD12C,0.0551*%
%ADD13C,0.0591*%
%ADD14R,0.0591X0.0591*%
%ADD15O,0.0591X0.1575*%
%ADD16O,0.1575X0.0591*%
%ADD17O,0.0591X0.1772*%
%ADD18O,0.1575X0.0787*%
%ADD19O,0.0787X0.1575*%
%ADD20O,0.0787X0.1772*%
%ADD21R,0.0492X0.0492*%
%ADD22C,0.0492*%
%ADD23R,0.0492X0.0492*%
%ADD24R,0.0728X0.0728*%
%ADD25C,0.0728*%
%ADD26C,0.0472*%
%ADD27C,0.0787*%
%ADD28R,0.0787X0.0787*%
%ADD29R,0.0591X0.0591*%
%ADD30C,0.0079*%
%ADD31C,0.0098*%
%ADD32C,0.0236*%
%ADD33C,0.0059*%
%ADD34R,0.1102X0.0315*%
%ADD35C,0.0474*%
%ADD36C,0.0631*%
%ADD37C,0.0671*%
%ADD38R,0.0671X0.0671*%
%ADD39O,0.0671X0.1655*%
%ADD40O,0.1655X0.0671*%
%ADD41O,0.0671X0.1852*%
%ADD42O,0.1655X0.0867*%
%ADD43O,0.0867X0.1655*%
%ADD44O,0.0867X0.1852*%
%ADD45R,0.0572X0.0572*%
%ADD46C,0.0572*%
%ADD47R,0.0572X0.0572*%
%ADD48R,0.0808X0.0808*%
%ADD49C,0.0808*%
%ADD50C,0.0552*%
%ADD51C,0.0867*%
%ADD52R,0.0867X0.0867*%
%ADD53R,0.0671X0.0671*%
%ADD54C,0.0394*%
%ADD55C,0.0012*%
%ADD56C,0.0794*%
%ADD57C,0.0039*%
%ADD58C,0.0118*%
%ADD59C,0.0067*%
D55*
X33361Y39650D02*
X32573D01*
X32967Y39256D02*
Y40044D01*
X20434Y38900D02*
X20100D01*
X20267Y38733D02*
Y39067D01*
X20434Y35900D02*
X20100D01*
X20267Y35733D02*
Y36067D01*
X43844Y39000D02*
X43490D01*
X43667Y38823D02*
Y39177D01*
X43844Y38000D02*
X43490D01*
X43667Y37823D02*
Y38177D01*
X44272Y45600D02*
X43957D01*
X44114Y45443D02*
Y45757D01*
X43091Y43632D02*
X42776D01*
X42933Y43474D02*
Y43789D01*
X41831Y45600D02*
X41516D01*
X41673Y45443D02*
Y45757D01*
X23621Y45400D02*
X23326D01*
X23473Y45252D02*
Y45548D01*
X24408Y45400D02*
X24113D01*
X24261Y45252D02*
Y45548D01*
X26608Y38000D02*
X26313D01*
X26461Y37852D02*
Y38148D01*
X25821Y38000D02*
X25526D01*
X25673Y37852D02*
Y38148D01*
X23415Y39406D02*
X23119D01*
X23267Y39259D02*
Y39554D01*
X23415Y40194D02*
X23119D01*
X23267Y40046D02*
Y40341D01*
X39221Y39000D02*
X38926D01*
X39073Y38852D02*
Y39148D01*
X40008Y39000D02*
X39713D01*
X39861Y38852D02*
Y39148D01*
X36160Y45600D02*
X35727D01*
X35943Y45383D02*
Y45817D01*
X33207Y45600D02*
X32774D01*
X32991Y45383D02*
Y45817D01*
X32605Y32700D02*
X32329D01*
X32467Y32562D02*
Y32838D01*
X32605Y33700D02*
X32329D01*
X32467Y33562D02*
Y33838D01*
X32605Y36500D02*
X32329D01*
X32467Y36362D02*
Y36638D01*
X32605Y37500D02*
X32329D01*
X32467Y37362D02*
Y37638D01*
X39605Y45500D02*
X39329D01*
X39467Y45362D02*
Y45638D01*
X39605Y44500D02*
X39329D01*
X39467Y44362D02*
Y44638D01*
X41303Y36059D02*
X40831D01*
X41067Y35823D02*
Y36295D01*
X41303Y31941D02*
X40831D01*
X41067Y31705D02*
Y32177D01*
X43903Y31741D02*
X43431D01*
X43667Y31505D02*
Y31977D01*
X43903Y35859D02*
X43431D01*
X43667Y35623D02*
Y36095D01*
X35903Y31741D02*
X35431D01*
X35667Y31505D02*
Y31977D01*
X35903Y35859D02*
X35431D01*
X35667Y35623D02*
Y36095D01*
X39103Y31741D02*
X38631D01*
X38867Y31505D02*
Y31977D01*
X39103Y35859D02*
X38631D01*
X38867Y35623D02*
Y36095D01*
X20244Y45600D02*
X19890D01*
X20067Y45423D02*
Y45777D01*
X20244Y46600D02*
X19890D01*
X20067Y46423D02*
Y46777D01*
X20434Y44100D02*
X20100D01*
X20267Y43933D02*
Y44267D01*
X20434Y41100D02*
X20100D01*
X20267Y40933D02*
Y41267D01*
X29334Y45600D02*
X29000D01*
X29167Y45433D02*
Y45767D01*
X26334Y45600D02*
X26000D01*
X26167Y45433D02*
Y45767D01*
X29134Y43600D02*
X28800D01*
X28967Y43433D02*
Y43767D01*
X26134Y43600D02*
X25800D01*
X25967Y43433D02*
Y43767D01*
X36834Y37100D02*
X36500D01*
X36667Y36933D02*
Y37267D01*
X36834Y40100D02*
X36500D01*
X36667Y39933D02*
Y40267D01*
X39244Y42000D02*
X38890D01*
X39067Y41823D02*
Y42177D01*
X40244Y42000D02*
X39890D01*
X40067Y41823D02*
Y42177D01*
X41244Y42000D02*
X40890D01*
X41067Y41823D02*
Y42177D01*
X42244Y42000D02*
X41890D01*
X42067Y41823D02*
Y42177D01*
X43244Y42000D02*
X42890D01*
X43067Y41823D02*
Y42177D01*
X44244Y42000D02*
X43890D01*
X44067Y41823D02*
Y42177D01*
X27344Y35500D02*
X26990D01*
X27167Y35323D02*
Y35677D01*
X27344Y34500D02*
X26990D01*
X27167Y34323D02*
Y34677D01*
X27344Y33500D02*
X26990D01*
X27167Y33323D02*
Y33677D01*
X27344Y32500D02*
X26990D01*
X27167Y32323D02*
Y32677D01*
X24344Y35500D02*
X23990D01*
X24167Y35323D02*
Y35677D01*
X24344Y34500D02*
X23990D01*
X24167Y34323D02*
Y34677D01*
X24344Y33500D02*
X23990D01*
X24167Y33323D02*
Y33677D01*
X24344Y32500D02*
X23990D01*
X24167Y32323D02*
Y32677D01*
M02*
