%FSLAX24Y24*%
%MOIN*%
G70*
G01*
G75*
%ADD10C,0.0100*%
%ADD11C,0.0394*%
%ADD12C,0.0551*%
%ADD13C,0.0591*%
%ADD14R,0.0591X0.0591*%
%ADD15O,0.0591X0.1575*%
%ADD16O,0.1575X0.0591*%
%ADD17O,0.0591X0.1772*%
%ADD18O,0.1575X0.0787*%
%ADD19O,0.0787X0.1575*%
%ADD20O,0.0787X0.1772*%
%ADD21R,0.0492X0.0492*%
%ADD22C,0.0492*%
%ADD23R,0.0492X0.0492*%
%ADD24R,0.0728X0.0728*%
%ADD25C,0.0728*%
%ADD26C,0.0472*%
%ADD27C,0.0787*%
%ADD28R,0.0787X0.0787*%
%ADD29R,0.0591X0.0591*%
%ADD30C,0.0079*%
%ADD31C,0.0098*%
%ADD32C,0.0236*%
%ADD33C,0.0059*%
%ADD34R,0.1102X0.0315*%
G36*
X44000Y47300D02*
X35200D01*
Y48950D01*
X44000D01*
Y47300D01*
D02*
G37*
%LPC*%
G36*
X37688Y48750D02*
X37619D01*
Y48097D01*
X37688D01*
Y48750D01*
D02*
G37*
G36*
X37585D02*
X37551D01*
Y48097D01*
X37585D01*
Y48750D01*
D02*
G37*
G36*
X37483D02*
X37449D01*
Y48097D01*
X37483D01*
Y48750D01*
D02*
G37*
G36*
X37927D02*
X37859D01*
Y48097D01*
X37927D01*
Y48750D01*
D02*
G37*
G36*
X37824D02*
X37790D01*
Y48097D01*
X37824D01*
Y48750D01*
D02*
G37*
G36*
X37756D02*
X37722D01*
Y48097D01*
X37756D01*
Y48750D01*
D02*
G37*
G36*
X37141D02*
X37073D01*
Y48097D01*
X37141D01*
Y48750D01*
D02*
G37*
G36*
X37039D02*
X37005D01*
Y48097D01*
X37039D01*
Y48750D01*
D02*
G37*
G36*
X36937D02*
X36902D01*
Y48097D01*
X36937D01*
Y48750D01*
D02*
G37*
G36*
X37380D02*
X37346D01*
Y48097D01*
X37380D01*
Y48750D01*
D02*
G37*
G36*
X37312D02*
X37278D01*
Y48097D01*
X37312D01*
Y48750D01*
D02*
G37*
G36*
X37210D02*
X37176D01*
Y48097D01*
X37210D01*
Y48750D01*
D02*
G37*
G36*
X38029D02*
X37995D01*
Y48097D01*
X38029D01*
Y48750D01*
D02*
G37*
G36*
X38815D02*
X38746D01*
Y48097D01*
X38815D01*
Y48750D01*
D02*
G37*
G36*
X38712D02*
X38644D01*
Y48097D01*
X38712D01*
Y48750D01*
D02*
G37*
G36*
X38610D02*
X38576D01*
Y48097D01*
X38610D01*
Y48750D01*
D02*
G37*
G36*
X39088D02*
X39054D01*
Y48097D01*
X39088D01*
Y48750D01*
D02*
G37*
G36*
X38985D02*
X38951D01*
Y48097D01*
X38985D01*
Y48750D01*
D02*
G37*
G36*
X38917D02*
X38883D01*
Y48097D01*
X38917D01*
Y48750D01*
D02*
G37*
G36*
X38268D02*
X38234D01*
Y48097D01*
X38268D01*
Y48750D01*
D02*
G37*
G36*
X38200D02*
X38166D01*
Y48097D01*
X38200D01*
Y48750D01*
D02*
G37*
G36*
X38098D02*
X38063D01*
Y48097D01*
X38098D01*
Y48750D01*
D02*
G37*
G36*
X38541D02*
X38507D01*
Y48097D01*
X38541D01*
Y48750D01*
D02*
G37*
G36*
X38473D02*
X38439D01*
Y48097D01*
X38473D01*
Y48750D01*
D02*
G37*
G36*
X38371D02*
X38337D01*
Y48097D01*
X38371D01*
Y48750D01*
D02*
G37*
G36*
X36868D02*
X36834D01*
Y48097D01*
X36868D01*
Y48750D01*
D02*
G37*
G36*
X37535Y47785D02*
X37531D01*
X37525Y47784D01*
X37519Y47783D01*
X37514Y47782D01*
X37509Y47780D01*
X37506Y47778D01*
X37503Y47776D01*
X37501Y47776D01*
X37500Y47775D01*
X37495Y47771D01*
X37490Y47765D01*
X37485Y47758D01*
X37480Y47751D01*
X37477Y47745D01*
X37473Y47741D01*
X37472Y47738D01*
X37471Y47737D01*
X37471Y47736D01*
Y47779D01*
X37428D01*
Y47500D01*
X37475D01*
Y47645D01*
X37476Y47656D01*
X37476Y47667D01*
X37478Y47675D01*
X37479Y47684D01*
X37480Y47691D01*
X37482Y47695D01*
X37482Y47698D01*
Y47699D01*
X37483Y47699D01*
Y47700D01*
X37485Y47706D01*
X37488Y47711D01*
X37491Y47716D01*
X37494Y47719D01*
X37496Y47722D01*
X37498Y47724D01*
X37500Y47726D01*
X37500Y47726D01*
X37505Y47729D01*
X37510Y47731D01*
X37515Y47733D01*
X37519Y47734D01*
X37523Y47735D01*
X37526Y47736D01*
X37528D01*
X37535Y47735D01*
X37541Y47734D01*
X37547Y47733D01*
X37552Y47730D01*
X37557Y47729D01*
X37560Y47727D01*
X37562Y47726D01*
X37563Y47726D01*
X37580Y47769D01*
X37570Y47774D01*
X37562Y47778D01*
X37553Y47780D01*
X37546Y47783D01*
X37540Y47783D01*
X37535Y47785D01*
D02*
G37*
G36*
X35974Y47884D02*
X35905D01*
X35714Y47694D01*
Y47884D01*
X35663D01*
Y47500D01*
X35714D01*
Y47633D01*
X35777Y47694D01*
X35914Y47500D01*
X35981D01*
X35813Y47728D01*
X35974Y47884D01*
D02*
G37*
G36*
X42652Y47779D02*
X42605D01*
X42546Y47616D01*
X42542Y47604D01*
X42538Y47593D01*
X42534Y47583D01*
X42531Y47573D01*
X42529Y47565D01*
X42528Y47561D01*
X42527Y47558D01*
X42527Y47556D01*
X42526Y47554D01*
X42526Y47554D01*
Y47553D01*
X42522Y47565D01*
X42519Y47578D01*
X42515Y47589D01*
X42512Y47598D01*
X42510Y47606D01*
X42509Y47610D01*
X42508Y47612D01*
X42507Y47614D01*
X42506Y47616D01*
X42506Y47617D01*
Y47618D01*
X42447Y47779D01*
X42397D01*
X42503Y47500D01*
X42501Y47495D01*
X42500Y47491D01*
X42499Y47489D01*
X42499Y47488D01*
X42497Y47484D01*
X42495Y47479D01*
X42492Y47471D01*
X42490Y47465D01*
X42488Y47460D01*
X42486Y47456D01*
X42485Y47455D01*
X42484Y47453D01*
Y47453D01*
X42479Y47446D01*
X42474Y47442D01*
X42472Y47441D01*
X42470Y47439D01*
X42469Y47439D01*
X42469D01*
X42465Y47436D01*
X42461Y47435D01*
X42453Y47434D01*
X42449D01*
X42446Y47433D01*
X42444D01*
X42435Y47434D01*
X42430Y47435D01*
X42426Y47435D01*
X42423Y47436D01*
X42420Y47437D01*
X42418Y47438D01*
X42417D01*
X42422Y47393D01*
X42428Y47392D01*
X42434Y47390D01*
X42439Y47389D01*
X42444Y47389D01*
X42447Y47388D01*
X42450Y47387D01*
X42453D01*
X42461Y47388D01*
X42468Y47389D01*
X42475Y47391D01*
X42480Y47393D01*
X42485Y47395D01*
X42488Y47397D01*
X42491Y47398D01*
X42491Y47399D01*
X42497Y47403D01*
X42503Y47408D01*
X42508Y47414D01*
X42512Y47420D01*
X42515Y47425D01*
X42518Y47429D01*
X42520Y47432D01*
X42520Y47432D01*
X42522Y47436D01*
X42524Y47440D01*
X42528Y47449D01*
X42533Y47460D01*
X42537Y47470D01*
X42541Y47480D01*
X42543Y47484D01*
X42544Y47488D01*
X42545Y47491D01*
X42546Y47494D01*
X42547Y47495D01*
Y47495D01*
X42652Y47779D01*
D02*
G37*
G36*
X35639Y48750D02*
X35571D01*
Y48097D01*
X35639D01*
Y48750D01*
D02*
G37*
G36*
X35537D02*
X35502D01*
Y48097D01*
X35537D01*
Y48750D01*
D02*
G37*
G36*
X35434D02*
X35400D01*
Y48097D01*
X35434D01*
Y48750D01*
D02*
G37*
G36*
X36656Y47785D02*
X36647D01*
X36634Y47784D01*
X36622Y47783D01*
X36611Y47782D01*
X36602Y47779D01*
X36594Y47778D01*
X36591Y47777D01*
X36588Y47776D01*
X36586Y47776D01*
X36585Y47775D01*
X36584Y47775D01*
X36583D01*
X36574Y47771D01*
X36565Y47766D01*
X36558Y47762D01*
X36552Y47757D01*
X36548Y47752D01*
X36544Y47750D01*
X36542Y47748D01*
X36542Y47747D01*
X36537Y47740D01*
X36532Y47731D01*
X36529Y47723D01*
X36526Y47716D01*
X36524Y47709D01*
X36522Y47704D01*
X36522Y47702D01*
Y47701D01*
X36521Y47699D01*
Y47699D01*
X36567Y47692D01*
X36570Y47702D01*
X36574Y47712D01*
X36578Y47719D01*
X36582Y47724D01*
X36585Y47729D01*
X36588Y47731D01*
X36590Y47733D01*
X36590Y47733D01*
X36597Y47737D01*
X36605Y47741D01*
X36613Y47743D01*
X36621Y47744D01*
X36628Y47745D01*
X36634Y47745D01*
X36640D01*
X36652Y47745D01*
X36663Y47743D01*
X36672Y47741D01*
X36680Y47737D01*
X36686Y47734D01*
X36690Y47732D01*
X36693Y47730D01*
X36694Y47730D01*
X36698Y47724D01*
X36702Y47718D01*
X36704Y47712D01*
X36706Y47705D01*
X36707Y47698D01*
X36707Y47693D01*
Y47691D01*
Y47690D01*
Y47689D01*
Y47688D01*
Y47688D01*
Y47685D01*
Y47681D01*
X36707Y47680D01*
Y47678D01*
Y47677D01*
Y47677D01*
X36701Y47675D01*
X36695Y47673D01*
X36682Y47670D01*
X36668Y47667D01*
X36655Y47664D01*
X36648Y47663D01*
X36642Y47663D01*
X36637Y47662D01*
X36632Y47661D01*
X36628Y47660D01*
X36625D01*
X36623Y47660D01*
X36623D01*
X36613Y47659D01*
X36604Y47657D01*
X36597Y47656D01*
X36591Y47655D01*
X36587Y47655D01*
X36583Y47653D01*
X36581Y47653D01*
X36581D01*
X36574Y47651D01*
X36567Y47649D01*
X36562Y47646D01*
X36557Y47643D01*
X36553Y47641D01*
X36549Y47639D01*
X36547Y47638D01*
X36547Y47638D01*
X36541Y47634D01*
X36537Y47629D01*
X36532Y47625D01*
X36529Y47621D01*
X36526Y47617D01*
X36524Y47614D01*
X36523Y47611D01*
X36522Y47611D01*
X36519Y47604D01*
X36517Y47597D01*
X36515Y47591D01*
X36514Y47586D01*
X36514Y47580D01*
X36513Y47576D01*
Y47574D01*
Y47573D01*
X36514Y47566D01*
X36514Y47561D01*
X36517Y47550D01*
X36521Y47540D01*
X36526Y47531D01*
X36530Y47525D01*
X36534Y47520D01*
X36537Y47517D01*
X36537Y47516D01*
X36538Y47516D01*
X36543Y47512D01*
X36548Y47509D01*
X36559Y47503D01*
X36571Y47499D01*
X36582Y47497D01*
X36592Y47495D01*
X36597Y47495D01*
X36601D01*
X36604Y47494D01*
X36608D01*
X36618Y47495D01*
X36628Y47495D01*
X36637Y47497D01*
X36644Y47498D01*
X36651Y47500D01*
X36656Y47502D01*
X36657Y47502D01*
X36659Y47502D01*
X36659Y47503D01*
X36660D01*
X36669Y47507D01*
X36678Y47512D01*
X36687Y47517D01*
X36694Y47523D01*
X36701Y47527D01*
X36706Y47531D01*
X36708Y47533D01*
X36710Y47534D01*
X36710Y47535D01*
X36711D01*
X36712Y47527D01*
X36713Y47521D01*
X36714Y47515D01*
X36716Y47510D01*
X36717Y47505D01*
X36719Y47502D01*
X36719Y47501D01*
X36720Y47500D01*
X36769D01*
X36766Y47506D01*
X36764Y47512D01*
X36762Y47517D01*
X36760Y47523D01*
X36759Y47527D01*
X36758Y47530D01*
X36757Y47533D01*
Y47533D01*
X36757Y47537D01*
X36756Y47542D01*
Y47547D01*
X36756Y47554D01*
X36755Y47568D01*
Y47582D01*
X36755Y47589D01*
Y47595D01*
Y47601D01*
Y47606D01*
Y47611D01*
Y47614D01*
Y47616D01*
Y47617D01*
Y47680D01*
Y47691D01*
X36754Y47699D01*
X36754Y47707D01*
Y47713D01*
X36753Y47717D01*
X36753Y47720D01*
X36752Y47723D01*
Y47723D01*
X36750Y47730D01*
X36748Y47736D01*
X36746Y47741D01*
X36743Y47746D01*
X36741Y47750D01*
X36739Y47752D01*
X36738Y47754D01*
X36737Y47755D01*
X36733Y47759D01*
X36728Y47764D01*
X36722Y47767D01*
X36717Y47770D01*
X36712Y47772D01*
X36708Y47775D01*
X36705Y47776D01*
X36705Y47776D01*
X36704D01*
X36695Y47779D01*
X36686Y47781D01*
X36676Y47783D01*
X36667Y47783D01*
X36659Y47784D01*
X36656Y47785D01*
D02*
G37*
G36*
X38339Y47875D02*
X38292Y47847D01*
Y47779D01*
X38257D01*
Y47742D01*
X38292D01*
Y47582D01*
Y47574D01*
X38292Y47567D01*
Y47561D01*
X38293Y47555D01*
X38293Y47550D01*
X38294Y47545D01*
X38294Y47541D01*
X38295Y47537D01*
X38296Y47532D01*
X38296Y47529D01*
X38297Y47526D01*
Y47526D01*
X38300Y47521D01*
X38303Y47517D01*
X38306Y47513D01*
X38310Y47510D01*
X38313Y47508D01*
X38315Y47506D01*
X38317Y47505D01*
X38317Y47505D01*
X38323Y47502D01*
X38329Y47500D01*
X38336Y47498D01*
X38342Y47498D01*
X38348Y47497D01*
X38353Y47497D01*
X38357D01*
X38369Y47497D01*
X38375Y47498D01*
X38381Y47498D01*
X38386Y47499D01*
X38389Y47500D01*
X38392Y47501D01*
X38393D01*
X38386Y47542D01*
X38382Y47541D01*
X38378Y47541D01*
X38374D01*
X38371Y47540D01*
X38365D01*
X38358Y47541D01*
X38353Y47542D01*
X38351Y47543D01*
X38350Y47543D01*
X38349Y47544D01*
X38349D01*
X38345Y47547D01*
X38343Y47550D01*
X38341Y47551D01*
X38341Y47552D01*
X38340Y47555D01*
X38340Y47559D01*
X38339Y47564D01*
Y47568D01*
X38339Y47572D01*
Y47575D01*
Y47578D01*
Y47579D01*
Y47742D01*
X38386D01*
Y47779D01*
X38339D01*
Y47875D01*
D02*
G37*
G36*
X41687Y47785D02*
X41682D01*
X41672Y47784D01*
X41663Y47783D01*
X41655Y47782D01*
X41646Y47779D01*
X41639Y47778D01*
X41631Y47775D01*
X41625Y47772D01*
X41619Y47769D01*
X41613Y47766D01*
X41608Y47764D01*
X41604Y47761D01*
X41601Y47758D01*
X41598Y47757D01*
X41596Y47755D01*
X41595Y47754D01*
X41594Y47754D01*
X41587Y47746D01*
X41580Y47738D01*
X41575Y47729D01*
X41570Y47720D01*
X41566Y47710D01*
X41562Y47701D01*
X41559Y47691D01*
X41557Y47682D01*
X41555Y47674D01*
X41554Y47666D01*
X41553Y47658D01*
X41552Y47652D01*
Y47646D01*
X41552Y47642D01*
Y47640D01*
Y47639D01*
X41552Y47626D01*
X41553Y47614D01*
X41555Y47603D01*
X41557Y47593D01*
X41560Y47583D01*
X41563Y47574D01*
X41566Y47566D01*
X41570Y47558D01*
X41573Y47552D01*
X41576Y47547D01*
X41579Y47542D01*
X41582Y47538D01*
X41584Y47535D01*
X41586Y47533D01*
X41587Y47531D01*
X41588Y47531D01*
X41595Y47524D01*
X41602Y47519D01*
X41610Y47514D01*
X41618Y47509D01*
X41626Y47506D01*
X41633Y47503D01*
X41641Y47501D01*
X41648Y47498D01*
X41655Y47497D01*
X41662Y47496D01*
X41667Y47495D01*
X41672Y47495D01*
X41676D01*
X41679Y47494D01*
X41682D01*
X41695Y47495D01*
X41708Y47497D01*
X41719Y47499D01*
X41729Y47502D01*
X41737Y47505D01*
X41741Y47507D01*
X41743Y47509D01*
X41746Y47509D01*
X41747Y47510D01*
X41748Y47511D01*
X41749D01*
X41760Y47518D01*
X41769Y47526D01*
X41777Y47533D01*
X41784Y47541D01*
X41789Y47548D01*
X41793Y47554D01*
X41794Y47555D01*
X41795Y47557D01*
X41796Y47558D01*
Y47558D01*
X41799Y47565D01*
X41801Y47571D01*
X41805Y47585D01*
X41808Y47599D01*
X41810Y47613D01*
X41811Y47618D01*
X41811Y47625D01*
X41812Y47629D01*
X41812Y47634D01*
Y47638D01*
Y47641D01*
Y47642D01*
Y47643D01*
X41812Y47655D01*
X41811Y47667D01*
X41809Y47677D01*
X41807Y47687D01*
X41804Y47696D01*
X41801Y47705D01*
X41797Y47712D01*
X41794Y47719D01*
X41791Y47726D01*
X41787Y47731D01*
X41784Y47736D01*
X41781Y47740D01*
X41779Y47743D01*
X41777Y47745D01*
X41776Y47746D01*
X41776Y47747D01*
X41769Y47753D01*
X41761Y47759D01*
X41754Y47764D01*
X41746Y47769D01*
X41738Y47772D01*
X41730Y47775D01*
X41722Y47778D01*
X41715Y47780D01*
X41708Y47782D01*
X41702Y47783D01*
X41696Y47783D01*
X41691Y47784D01*
X41687Y47785D01*
D02*
G37*
G36*
X39292Y47779D02*
X39245D01*
X39186Y47616D01*
X39182Y47604D01*
X39178Y47593D01*
X39174Y47583D01*
X39171Y47573D01*
X39169Y47565D01*
X39168Y47561D01*
X39167Y47558D01*
X39167Y47556D01*
X39166Y47554D01*
X39166Y47554D01*
Y47553D01*
X39162Y47565D01*
X39159Y47578D01*
X39155Y47589D01*
X39152Y47598D01*
X39150Y47606D01*
X39149Y47610D01*
X39148Y47612D01*
X39147Y47614D01*
X39146Y47616D01*
X39146Y47617D01*
Y47618D01*
X39087Y47779D01*
X39037D01*
X39143Y47500D01*
X39141Y47495D01*
X39140Y47491D01*
X39139Y47489D01*
X39139Y47488D01*
X39137Y47484D01*
X39135Y47479D01*
X39132Y47471D01*
X39130Y47465D01*
X39128Y47460D01*
X39126Y47456D01*
X39125Y47455D01*
X39124Y47453D01*
Y47453D01*
X39119Y47446D01*
X39114Y47442D01*
X39112Y47441D01*
X39110Y47439D01*
X39109Y47439D01*
X39109D01*
X39105Y47436D01*
X39101Y47435D01*
X39093Y47434D01*
X39089D01*
X39086Y47433D01*
X39084D01*
X39075Y47434D01*
X39070Y47435D01*
X39066Y47435D01*
X39063Y47436D01*
X39060Y47437D01*
X39058Y47438D01*
X39057D01*
X39062Y47393D01*
X39068Y47392D01*
X39074Y47390D01*
X39079Y47389D01*
X39084Y47389D01*
X39087Y47388D01*
X39090Y47387D01*
X39093D01*
X39101Y47388D01*
X39108Y47389D01*
X39115Y47391D01*
X39120Y47393D01*
X39125Y47395D01*
X39128Y47397D01*
X39131Y47398D01*
X39131Y47399D01*
X39137Y47403D01*
X39143Y47408D01*
X39148Y47414D01*
X39152Y47420D01*
X39155Y47425D01*
X39158Y47429D01*
X39160Y47432D01*
X39160Y47432D01*
X39162Y47436D01*
X39164Y47440D01*
X39168Y47449D01*
X39173Y47460D01*
X39177Y47470D01*
X39181Y47480D01*
X39183Y47484D01*
X39184Y47488D01*
X39185Y47491D01*
X39186Y47494D01*
X39187Y47495D01*
Y47495D01*
X39292Y47779D01*
D02*
G37*
G36*
X43477D02*
X43249D01*
Y47740D01*
X43372D01*
X43381Y47740D01*
X43390D01*
X43398Y47741D01*
X43405D01*
X43411Y47741D01*
X43416D01*
X43239Y47538D01*
Y47500D01*
X43485D01*
Y47540D01*
X43356D01*
X43335Y47540D01*
X43325Y47540D01*
X43316Y47539D01*
X43308Y47538D01*
X43305Y47538D01*
X43300D01*
X43298Y47537D01*
X43297D01*
X43326Y47570D01*
X43477Y47747D01*
Y47779D01*
D02*
G37*
G36*
X40855Y47884D02*
X40703D01*
Y47500D01*
X40849D01*
X40863Y47501D01*
X40875Y47501D01*
X40885Y47502D01*
X40894Y47503D01*
X40901Y47504D01*
X40904Y47505D01*
X40907Y47505D01*
X40909Y47505D01*
X40910Y47506D01*
X40911D01*
X40920Y47509D01*
X40929Y47512D01*
X40936Y47515D01*
X40942Y47518D01*
X40947Y47520D01*
X40950Y47523D01*
X40953Y47524D01*
X40953Y47525D01*
X40959Y47530D01*
X40965Y47536D01*
X40970Y47542D01*
X40974Y47548D01*
X40977Y47553D01*
X40980Y47557D01*
X40981Y47560D01*
X40982Y47561D01*
X40986Y47570D01*
X40988Y47579D01*
X40990Y47587D01*
X40992Y47594D01*
X40993Y47601D01*
X40993Y47607D01*
Y47608D01*
Y47610D01*
Y47611D01*
Y47611D01*
X40992Y47623D01*
X40990Y47634D01*
X40987Y47644D01*
X40984Y47653D01*
X40980Y47660D01*
X40977Y47664D01*
X40976Y47667D01*
X40975Y47668D01*
X40974Y47668D01*
Y47669D01*
X40967Y47677D01*
X40958Y47685D01*
X40949Y47691D01*
X40941Y47696D01*
X40933Y47700D01*
X40929Y47702D01*
X40927Y47702D01*
X40924Y47703D01*
X40922Y47704D01*
X40921Y47705D01*
X40921D01*
X40930Y47709D01*
X40938Y47716D01*
X40945Y47721D01*
X40951Y47726D01*
X40956Y47731D01*
X40959Y47736D01*
X40961Y47738D01*
X40961Y47739D01*
X40966Y47748D01*
X40969Y47755D01*
X40971Y47764D01*
X40973Y47771D01*
X40974Y47777D01*
X40975Y47782D01*
Y47783D01*
Y47785D01*
Y47786D01*
Y47786D01*
X40974Y47796D01*
X40972Y47805D01*
X40970Y47814D01*
X40967Y47821D01*
X40964Y47828D01*
X40962Y47832D01*
X40960Y47835D01*
X40959Y47836D01*
Y47836D01*
X40953Y47845D01*
X40946Y47853D01*
X40940Y47859D01*
X40933Y47863D01*
X40927Y47867D01*
X40922Y47870D01*
X40920Y47871D01*
X40919Y47872D01*
X40918Y47873D01*
X40918D01*
X40907Y47877D01*
X40896Y47880D01*
X40884Y47881D01*
X40873Y47883D01*
X40863Y47884D01*
X40858D01*
X40855Y47884D01*
D02*
G37*
G36*
X35741Y48750D02*
X35673D01*
Y48097D01*
X35741D01*
Y48750D01*
D02*
G37*
G36*
X36493D02*
X36459D01*
Y48097D01*
X36493D01*
Y48750D01*
D02*
G37*
G36*
X36424D02*
X36390D01*
Y48097D01*
X36424D01*
Y48750D01*
D02*
G37*
G36*
X36322D02*
X36288D01*
Y48097D01*
X36322D01*
Y48750D01*
D02*
G37*
G36*
X36800D02*
X36732D01*
Y48097D01*
X36800D01*
Y48750D01*
D02*
G37*
G36*
X36698D02*
X36663D01*
Y48097D01*
X36698D01*
Y48750D01*
D02*
G37*
G36*
X36595D02*
X36561D01*
Y48097D01*
X36595D01*
Y48750D01*
D02*
G37*
G36*
X35980D02*
X35946D01*
Y48097D01*
X35980D01*
Y48750D01*
D02*
G37*
G36*
X35912D02*
X35844D01*
Y48097D01*
X35912D01*
Y48750D01*
D02*
G37*
G36*
X35810D02*
X35776D01*
Y48097D01*
X35810D01*
Y48750D01*
D02*
G37*
G36*
X36254D02*
X36185D01*
Y48097D01*
X36254D01*
Y48750D01*
D02*
G37*
G36*
X36117D02*
X36083D01*
Y48097D01*
X36117D01*
Y48750D01*
D02*
G37*
G36*
X36049D02*
X36015D01*
Y48097D01*
X36049D01*
Y48750D01*
D02*
G37*
G36*
X39156D02*
X39122D01*
Y48097D01*
X39156D01*
Y48750D01*
D02*
G37*
G36*
X42400D02*
X42366D01*
Y48097D01*
X42400D01*
Y48750D01*
D02*
G37*
G36*
X42332D02*
X42263D01*
Y48097D01*
X42332D01*
Y48750D01*
D02*
G37*
G36*
X42229D02*
X42195D01*
Y48097D01*
X42229D01*
Y48750D01*
D02*
G37*
G36*
X42639D02*
X42605D01*
Y48097D01*
X42639D01*
Y48750D01*
D02*
G37*
G36*
X42537D02*
X42502D01*
Y48097D01*
X42537D01*
Y48750D01*
D02*
G37*
G36*
X42468D02*
X42434D01*
Y48097D01*
X42468D01*
Y48750D01*
D02*
G37*
G36*
X42127D02*
X42058D01*
Y48097D01*
X42127D01*
Y48750D01*
D02*
G37*
G36*
X41751D02*
X41717D01*
Y48097D01*
X41751D01*
Y48750D01*
D02*
G37*
G36*
X41649D02*
X41615D01*
Y48097D01*
X41649D01*
Y48750D01*
D02*
G37*
G36*
X41580D02*
X41546D01*
Y48097D01*
X41580D01*
Y48750D01*
D02*
G37*
G36*
X42024D02*
X41990D01*
Y48097D01*
X42024D01*
Y48750D01*
D02*
G37*
G36*
X41922D02*
X41888D01*
Y48097D01*
X41922D01*
Y48750D01*
D02*
G37*
G36*
X41819D02*
X41785D01*
Y48097D01*
X41819D01*
Y48750D01*
D02*
G37*
G36*
X43527D02*
X43493D01*
Y48097D01*
X43527D01*
Y48750D01*
D02*
G37*
G36*
X43424D02*
X43390D01*
Y48097D01*
X43424D01*
Y48750D01*
D02*
G37*
G36*
X43356D02*
X43322D01*
Y48097D01*
X43356D01*
Y48750D01*
D02*
G37*
G36*
X43800D02*
X43766D01*
Y48097D01*
X43800D01*
Y48750D01*
D02*
G37*
G36*
X43732D02*
X43663D01*
Y48097D01*
X43732D01*
Y48750D01*
D02*
G37*
G36*
X43629D02*
X43561D01*
Y48097D01*
X43629D01*
Y48750D01*
D02*
G37*
G36*
X43288D02*
X43254D01*
Y48097D01*
X43288D01*
Y48750D01*
D02*
G37*
G36*
X42912D02*
X42878D01*
Y48097D01*
X42912D01*
Y48750D01*
D02*
G37*
G36*
X42810D02*
X42776D01*
Y48097D01*
X42810D01*
Y48750D01*
D02*
G37*
G36*
X42707D02*
X42673D01*
Y48097D01*
X42707D01*
Y48750D01*
D02*
G37*
G36*
X43219D02*
X43151D01*
Y48097D01*
X43219D01*
Y48750D01*
D02*
G37*
G36*
X43117D02*
X43049D01*
Y48097D01*
X43117D01*
Y48750D01*
D02*
G37*
G36*
X42980D02*
X42946D01*
Y48097D01*
X42980D01*
Y48750D01*
D02*
G37*
G36*
X40078D02*
X40044D01*
Y48097D01*
X40078D01*
Y48750D01*
D02*
G37*
G36*
X40010D02*
X39941D01*
Y48097D01*
X40010D01*
Y48750D01*
D02*
G37*
G36*
X39873D02*
X39839D01*
Y48097D01*
X39873D01*
Y48750D01*
D02*
G37*
G36*
X40317D02*
X40283D01*
Y48097D01*
X40317D01*
Y48750D01*
D02*
G37*
G36*
X40249D02*
X40215D01*
Y48097D01*
X40249D01*
Y48750D01*
D02*
G37*
G36*
X40180D02*
X40112D01*
Y48097D01*
X40180D01*
Y48750D01*
D02*
G37*
G36*
X39805D02*
X39771D01*
Y48097D01*
X39805D01*
Y48750D01*
D02*
G37*
G36*
X39463D02*
X39395D01*
Y48097D01*
X39463D01*
Y48750D01*
D02*
G37*
G36*
X39361D02*
X39327D01*
Y48097D01*
X39361D01*
Y48750D01*
D02*
G37*
G36*
X39258D02*
X39224D01*
Y48097D01*
X39258D01*
Y48750D01*
D02*
G37*
G36*
X39737D02*
X39702D01*
Y48097D01*
X39737D01*
Y48750D01*
D02*
G37*
G36*
X39668D02*
X39600D01*
Y48097D01*
X39668D01*
Y48750D01*
D02*
G37*
G36*
X39566D02*
X39532D01*
Y48097D01*
X39566D01*
Y48750D01*
D02*
G37*
G36*
X41307D02*
X41273D01*
Y48097D01*
X41307D01*
Y48750D01*
D02*
G37*
G36*
X41410D02*
X41341D01*
Y48097D01*
X41410D01*
Y48750D01*
D02*
G37*
G36*
X40932D02*
X40898D01*
Y48097D01*
X40932D01*
Y48750D01*
D02*
G37*
G36*
X41137D02*
X41102D01*
Y48097D01*
X41137D01*
Y48750D01*
D02*
G37*
G36*
X41034D02*
X41000D01*
Y48097D01*
X41034D01*
Y48750D01*
D02*
G37*
G36*
X41239D02*
X41171D01*
Y48097D01*
X41239D01*
Y48750D01*
D02*
G37*
G36*
X40863D02*
X40829D01*
Y48097D01*
X40863D01*
Y48750D01*
D02*
G37*
G36*
X40590D02*
X40556D01*
Y48097D01*
X40590D01*
Y48750D01*
D02*
G37*
G36*
X40488D02*
X40454D01*
Y48097D01*
X40488D01*
Y48750D01*
D02*
G37*
G36*
X40419D02*
X40351D01*
Y48097D01*
X40419D01*
Y48750D01*
D02*
G37*
G36*
X40761D02*
X40727D01*
Y48097D01*
X40761D01*
Y48750D01*
D02*
G37*
G36*
X41478D02*
X41444D01*
Y48097D01*
X41478D01*
Y48750D01*
D02*
G37*
G36*
X40693D02*
X40624D01*
Y48097D01*
X40693D01*
Y48750D01*
D02*
G37*
%LPD*%
G36*
X40856Y47677D02*
X40867Y47677D01*
X40877Y47675D01*
X40884Y47674D01*
X40891Y47673D01*
X40895Y47672D01*
X40898Y47671D01*
X40899Y47671D01*
X40906Y47668D01*
X40912Y47665D01*
X40917Y47661D01*
X40921Y47657D01*
X40925Y47654D01*
X40927Y47651D01*
X40929Y47649D01*
X40929Y47649D01*
X40933Y47642D01*
X40936Y47636D01*
X40938Y47630D01*
X40939Y47624D01*
X40940Y47619D01*
X40941Y47615D01*
Y47613D01*
Y47611D01*
X40940Y47605D01*
X40940Y47599D01*
X40938Y47593D01*
X40937Y47589D01*
X40935Y47585D01*
X40934Y47582D01*
X40933Y47579D01*
X40933Y47579D01*
X40930Y47574D01*
X40927Y47570D01*
X40923Y47566D01*
X40920Y47563D01*
X40917Y47561D01*
X40915Y47559D01*
X40914Y47558D01*
X40913Y47558D01*
X40909Y47555D01*
X40904Y47552D01*
X40899Y47551D01*
X40894Y47550D01*
X40890Y47548D01*
X40887Y47547D01*
X40885Y47547D01*
X40884D01*
X40880Y47547D01*
X40875Y47546D01*
X40863Y47545D01*
X40754D01*
Y47677D01*
X40843D01*
X40856Y47677D01*
D02*
G37*
G36*
X40852Y47839D02*
X40857Y47838D01*
X40863Y47838D01*
X40868D01*
X40872Y47837D01*
X40876Y47836D01*
X40882Y47835D01*
X40886Y47835D01*
X40888Y47834D01*
X40889Y47833D01*
X40895Y47831D01*
X40901Y47828D01*
X40905Y47825D01*
X40909Y47821D01*
X40912Y47818D01*
X40914Y47816D01*
X40915Y47814D01*
X40915Y47814D01*
X40918Y47808D01*
X40921Y47802D01*
X40922Y47797D01*
X40924Y47792D01*
X40924Y47787D01*
X40925Y47783D01*
Y47781D01*
Y47780D01*
X40924Y47772D01*
X40923Y47766D01*
X40922Y47760D01*
X40920Y47755D01*
X40918Y47751D01*
X40916Y47748D01*
X40915Y47747D01*
X40915Y47746D01*
X40911Y47741D01*
X40906Y47737D01*
X40901Y47734D01*
X40896Y47731D01*
X40892Y47730D01*
X40888Y47728D01*
X40886Y47727D01*
X40885Y47727D01*
X40879Y47726D01*
X40872Y47724D01*
X40864Y47724D01*
X40856Y47723D01*
X40849Y47723D01*
X40754D01*
Y47839D01*
X40845D01*
X40852Y47839D01*
D02*
G37*
G36*
X36707Y47622D02*
X36706Y47611D01*
X36706Y47601D01*
X36704Y47593D01*
X36703Y47587D01*
X36702Y47582D01*
X36700Y47578D01*
X36700Y47576D01*
X36699Y47575D01*
X36695Y47568D01*
X36690Y47561D01*
X36685Y47555D01*
X36680Y47551D01*
X36675Y47547D01*
X36671Y47544D01*
X36669Y47543D01*
X36668Y47543D01*
X36668D01*
X36660Y47538D01*
X36651Y47536D01*
X36643Y47534D01*
X36636Y47533D01*
X36629Y47531D01*
X36624Y47531D01*
X36620D01*
X36610Y47531D01*
X36602Y47533D01*
X36594Y47535D01*
X36588Y47537D01*
X36584Y47540D01*
X36580Y47541D01*
X36578Y47543D01*
X36578Y47544D01*
X36573Y47548D01*
X36570Y47554D01*
X36567Y47559D01*
X36566Y47564D01*
X36565Y47568D01*
X36564Y47572D01*
Y47573D01*
Y47575D01*
X36564Y47579D01*
X36565Y47583D01*
X36566Y47587D01*
X36567Y47590D01*
X36568Y47593D01*
X36569Y47596D01*
X36570Y47597D01*
X36570Y47597D01*
X36573Y47600D01*
X36576Y47604D01*
X36582Y47608D01*
X36585Y47610D01*
X36587Y47611D01*
X36588Y47612D01*
X36589D01*
X36594Y47614D01*
X36600Y47616D01*
X36607Y47618D01*
X36614Y47619D01*
X36620Y47620D01*
X36625Y47621D01*
X36627D01*
X36628Y47621D01*
X36630D01*
X36639Y47623D01*
X36648Y47625D01*
X36656Y47626D01*
X36663Y47628D01*
X36670Y47629D01*
X36677Y47631D01*
X36682Y47632D01*
X36687Y47634D01*
X36692Y47635D01*
X36696Y47636D01*
X36699Y47637D01*
X36702Y47638D01*
X36704Y47639D01*
X36706Y47639D01*
X36706Y47639D01*
X36707D01*
Y47622D01*
D02*
G37*
G36*
X41688Y47745D02*
X41694Y47744D01*
X41706Y47741D01*
X41716Y47737D01*
X41724Y47732D01*
X41731Y47727D01*
X41736Y47723D01*
X41738Y47721D01*
X41739Y47719D01*
X41740Y47719D01*
X41740Y47719D01*
X41744Y47713D01*
X41748Y47708D01*
X41754Y47695D01*
X41758Y47682D01*
X41761Y47670D01*
X41762Y47663D01*
X41763Y47658D01*
X41763Y47653D01*
Y47649D01*
X41764Y47646D01*
Y47643D01*
Y47641D01*
Y47641D01*
Y47631D01*
X41763Y47621D01*
X41762Y47613D01*
X41760Y47605D01*
X41758Y47597D01*
X41756Y47591D01*
X41754Y47585D01*
X41752Y47579D01*
X41750Y47575D01*
X41748Y47571D01*
X41746Y47568D01*
X41744Y47565D01*
X41742Y47562D01*
X41741Y47561D01*
X41741Y47560D01*
X41740Y47559D01*
X41736Y47555D01*
X41731Y47551D01*
X41726Y47547D01*
X41721Y47544D01*
X41711Y47540D01*
X41702Y47537D01*
X41694Y47534D01*
X41691Y47534D01*
X41688Y47533D01*
X41685Y47533D01*
X41682D01*
X41675Y47533D01*
X41669Y47534D01*
X41658Y47537D01*
X41648Y47541D01*
X41639Y47547D01*
X41633Y47551D01*
X41627Y47555D01*
X41626Y47557D01*
X41624Y47558D01*
X41624Y47559D01*
X41623Y47559D01*
X41619Y47565D01*
X41616Y47571D01*
X41610Y47583D01*
X41606Y47597D01*
X41603Y47609D01*
X41602Y47615D01*
X41601Y47621D01*
X41601Y47626D01*
Y47631D01*
X41600Y47634D01*
Y47636D01*
Y47639D01*
Y47639D01*
X41601Y47649D01*
X41601Y47658D01*
X41602Y47667D01*
X41604Y47674D01*
X41606Y47681D01*
X41608Y47688D01*
X41610Y47694D01*
X41612Y47699D01*
X41614Y47704D01*
X41616Y47708D01*
X41618Y47711D01*
X41620Y47714D01*
X41621Y47716D01*
X41622Y47718D01*
X41623Y47719D01*
Y47719D01*
X41628Y47723D01*
X41633Y47728D01*
X41637Y47731D01*
X41642Y47734D01*
X41652Y47739D01*
X41661Y47742D01*
X41669Y47744D01*
X41673Y47744D01*
X41676Y47745D01*
X41678Y47745D01*
X41682D01*
X41688Y47745D01*
D02*
G37*
D10*
X23300Y48750D02*
X23100D01*
X23200D01*
Y48250D01*
X23100Y48150D01*
X23000D01*
X22900Y48250D01*
X23500Y48650D02*
X23600Y48750D01*
X23800D01*
X23900Y48650D01*
Y48250D01*
X23800Y48150D01*
X23600D01*
X23500Y48250D01*
Y48650D01*
X40700Y46850D02*
X40600Y46950D01*
X40400D01*
X40300Y46850D01*
Y46450D01*
X40400Y46350D01*
X40600D01*
X40700Y46450D01*
X40900Y46350D02*
X41100D01*
X41000D01*
Y46950D01*
X40900Y46850D01*
X39300Y40100D02*
X39200Y40200D01*
X39000D01*
X38900Y40100D01*
Y39700D01*
X39000Y39600D01*
X39200D01*
X39300Y39700D01*
X39900Y39600D02*
X39500D01*
X39900Y40000D01*
Y40100D01*
X39800Y40200D01*
X39600D01*
X39500Y40100D01*
X40800Y40900D02*
X40700Y40800D01*
Y40600D01*
X40800Y40500D01*
X41200D01*
X41300Y40600D01*
Y40800D01*
X41200Y40900D01*
X40800Y41100D02*
X40700Y41200D01*
Y41400D01*
X40800Y41500D01*
X40900D01*
X41000Y41400D01*
Y41300D01*
Y41400D01*
X41100Y41500D01*
X41200D01*
X41300Y41400D01*
Y41200D01*
X41200Y41100D01*
X34550Y33450D02*
X34450Y33550D01*
X34250D01*
X34150Y33450D01*
Y33050D01*
X34250Y32950D01*
X34450D01*
X34550Y33050D01*
X35050Y32950D02*
Y33550D01*
X34750Y33250D01*
X35150D01*
X32250Y38750D02*
X32150Y38850D01*
X31950D01*
X31850Y38750D01*
Y38350D01*
X31950Y38250D01*
X32150D01*
X32250Y38350D01*
X32850Y38850D02*
X32450D01*
Y38550D01*
X32650Y38650D01*
X32750D01*
X32850Y38550D01*
Y38350D01*
X32750Y38250D01*
X32550D01*
X32450Y38350D01*
X24900Y40750D02*
X24800Y40850D01*
X24600D01*
X24500Y40750D01*
Y40350D01*
X24600Y40250D01*
X24800D01*
X24900Y40350D01*
X25500Y40850D02*
X25300Y40750D01*
X25100Y40550D01*
Y40350D01*
X25200Y40250D01*
X25400D01*
X25500Y40350D01*
Y40450D01*
X25400Y40550D01*
X25100D01*
X26100Y47250D02*
X26000Y47350D01*
X25800D01*
X25700Y47250D01*
Y46850D01*
X25800Y46750D01*
X26000D01*
X26100Y46850D01*
X26300Y47350D02*
X26700D01*
Y47250D01*
X26300Y46850D01*
Y46750D01*
X30080Y47420D02*
X29980Y47520D01*
X29780D01*
X29680Y47420D01*
Y47020D01*
X29780Y46920D01*
X29980D01*
X30080Y47020D01*
X30280Y47420D02*
X30380Y47520D01*
X30580D01*
X30680Y47420D01*
Y47320D01*
X30580Y47220D01*
X30680Y47120D01*
Y47020D01*
X30580Y46920D01*
X30380D01*
X30280Y47020D01*
Y47120D01*
X30380Y47220D01*
X30280Y47320D01*
Y47420D01*
X30380Y47220D02*
X30580D01*
X24110Y37390D02*
Y36790D01*
X24410D01*
X24510Y36890D01*
Y37290D01*
X24410Y37390D01*
X24110D01*
X24710Y36790D02*
X24910D01*
X24810D01*
Y37390D01*
X24710Y37290D01*
X22750Y33200D02*
Y32600D01*
X23050D01*
X23150Y32700D01*
Y33100D01*
X23050Y33200D01*
X22750D01*
X23750Y32600D02*
X23350D01*
X23750Y33000D01*
Y33100D01*
X23650Y33200D01*
X23450D01*
X23350Y33100D01*
X30900Y33150D02*
Y32550D01*
X31200D01*
X31300Y32650D01*
Y33050D01*
X31200Y33150D01*
X30900D01*
X31500Y33050D02*
X31600Y33150D01*
X31800D01*
X31900Y33050D01*
Y32950D01*
X31800Y32850D01*
X31700D01*
X31800D01*
X31900Y32750D01*
Y32650D01*
X31800Y32550D01*
X31600D01*
X31500Y32650D01*
X27600Y32550D02*
Y31950D01*
X27900D01*
X28000Y32050D01*
Y32450D01*
X27900Y32550D01*
X27600D01*
X28500Y31950D02*
Y32550D01*
X28200Y32250D01*
X28600D01*
X45110Y47490D02*
Y48090D01*
X45310Y47890D01*
X45510Y48090D01*
Y47490D01*
X45710Y48090D02*
Y47490D01*
Y47690D01*
X46110Y48090D01*
X45810Y47790D01*
X46110Y47490D01*
X46310D02*
X46510D01*
X46410D01*
Y48090D01*
X46310Y47990D01*
X22900Y37800D02*
Y38400D01*
X23200D01*
X23300Y38300D01*
Y38100D01*
X23200Y38000D01*
X22900D01*
X23500Y38300D02*
X23600Y38400D01*
X23800D01*
X23900Y38300D01*
Y37900D01*
X23800Y37800D01*
X23600D01*
X23500Y37900D01*
Y38300D01*
X43800Y41950D02*
Y42550D01*
X44100D01*
X44200Y42450D01*
Y42250D01*
X44100Y42150D01*
X43800D01*
X44000D02*
X44200Y41950D01*
X44400D02*
X44600D01*
X44500D01*
Y42550D01*
X44400Y42450D01*
X45650Y34500D02*
Y35100D01*
X45950D01*
X46050Y35000D01*
Y34800D01*
X45950Y34700D01*
X45650D01*
X45850D02*
X46050Y34500D01*
X46650D02*
X46250D01*
X46650Y34900D01*
Y35000D01*
X46550Y35100D01*
X46350D01*
X46250Y35000D01*
X36280Y46240D02*
Y46840D01*
X36580D01*
X36680Y46740D01*
Y46540D01*
X36580Y46440D01*
X36280D01*
X36480D02*
X36680Y46240D01*
X36880Y46740D02*
X36980Y46840D01*
X37180D01*
X37280Y46740D01*
Y46640D01*
X37180Y46540D01*
X37080D01*
X37180D01*
X37280Y46440D01*
Y46340D01*
X37180Y46240D01*
X36980D01*
X36880Y46340D01*
X36700Y44300D02*
Y44900D01*
X37000D01*
X37100Y44800D01*
Y44600D01*
X37000Y44500D01*
X36700D01*
X36900D02*
X37100Y44300D01*
X37600D02*
Y44900D01*
X37300Y44600D01*
X37700D01*
X28765Y40715D02*
Y41315D01*
X29065D01*
X29165Y41215D01*
Y41015D01*
X29065Y40915D01*
X28765D01*
X28965D02*
X29165Y40715D01*
X29765Y41315D02*
X29365D01*
Y41015D01*
X29565Y41115D01*
X29665D01*
X29765Y41015D01*
Y40815D01*
X29665Y40715D01*
X29465D01*
X29365Y40815D01*
X27550Y42050D02*
X27450Y41950D01*
Y41750D01*
X27550Y41650D01*
X27650D01*
X27750Y41750D01*
Y41950D01*
X27850Y42050D01*
X27950D01*
X28050Y41950D01*
Y41750D01*
X27950Y41650D01*
X28050Y42250D02*
Y42450D01*
Y42350D01*
X27450D01*
X27550Y42250D01*
X38650Y31400D02*
Y30800D01*
X39050D01*
X39250D02*
Y31400D01*
X39450Y31200D01*
X39650Y31400D01*
Y30800D01*
X39850Y31300D02*
X39950Y31400D01*
X40150D01*
X40249Y31300D01*
Y31200D01*
X40150Y31100D01*
X40050D01*
X40150D01*
X40249Y31000D01*
Y30900D01*
X40150Y30800D01*
X39950D01*
X39850Y30900D01*
X40449Y31300D02*
X40549Y31400D01*
X40749D01*
X40849Y31300D01*
Y31200D01*
X40749Y31100D01*
X40849Y31000D01*
Y30900D01*
X40749Y30800D01*
X40549D01*
X40449Y30900D01*
Y31000D01*
X40549Y31100D01*
X40449Y31200D01*
Y31300D01*
X40549Y31100D02*
X40749D01*
X41449Y31400D02*
X41249Y31300D01*
X41049Y31100D01*
Y30900D01*
X41149Y30800D01*
X41349D01*
X41449Y30900D01*
Y31000D01*
X41349Y31100D01*
X41049D01*
X31100Y40943D02*
Y40371D01*
X31129Y40943D02*
Y40371D01*
X31100Y40943D02*
X31243D01*
X31100Y40371D02*
X31243D01*
X31548Y41000D02*
X31349Y40200D01*
X31720Y41000D02*
X31520Y40200D01*
X31349Y40686D02*
X31748D01*
X31320Y40514D02*
X31720D01*
X31886Y40200D02*
X32343D01*
X32848Y40771D02*
X32820Y40828D01*
X32762Y40857D01*
X32677D01*
X32620Y40828D01*
X32591Y40800D01*
X32563Y40714D01*
Y40629D01*
X32591Y40571D01*
X32648Y40543D01*
X32734D01*
X32791Y40571D01*
X32820Y40629D01*
X32677Y40857D02*
X32620Y40800D01*
X32591Y40714D01*
Y40629D01*
X32620Y40571D01*
X32648Y40543D01*
X32848Y40857D02*
X32820Y40629D01*
Y40571D01*
X32877Y40543D01*
X32934D01*
X32991Y40600D01*
X33020Y40686D01*
Y40743D01*
X32991Y40828D01*
X32962Y40886D01*
X32905Y40943D01*
X32848Y40971D01*
X32762Y41000D01*
X32677D01*
X32591Y40971D01*
X32534Y40943D01*
X32477Y40886D01*
X32448Y40828D01*
X32420Y40743D01*
Y40657D01*
X32448Y40571D01*
X32477Y40514D01*
X32534Y40457D01*
X32591Y40429D01*
X32677Y40400D01*
X32762D01*
X32848Y40429D01*
X32905Y40457D01*
X32934Y40486D01*
X32877Y40857D02*
X32848Y40629D01*
Y40571D01*
X32877Y40543D01*
X33288Y40943D02*
Y40371D01*
X33317Y40943D02*
Y40371D01*
X33174Y40943D02*
X33317D01*
X33174Y40371D02*
X33317D01*
D30*
X42784Y45400D02*
G03*
X42784Y45400I-984J0D01*
G01*
X40584Y38000D02*
G03*
X40584Y38000I-984J0D01*
G01*
X43384Y39800D02*
G03*
X43384Y39800I-984J0D01*
G01*
X27184Y39000D02*
G03*
X27184Y39000I-984J0D01*
G01*
X34350Y45600D02*
G03*
X34350Y45600I-3150J0D01*
G01*
X39750Y36028D02*
G03*
X40250Y36028I250J0D01*
G01*
X45400Y36310D02*
Y36400D01*
Y38400D02*
Y38490D01*
X45100Y36400D02*
X45400D01*
X45100D02*
Y38400D01*
X45700D01*
Y36400D02*
Y38400D01*
X45400Y36400D02*
X45700D01*
X21500Y37500D02*
Y39500D01*
Y37500D02*
X22500D01*
Y39500D01*
X21500D02*
X22500D01*
X24348Y46466D02*
Y47372D01*
X18600D02*
X24348D01*
X18600Y43828D02*
Y47372D01*
X24348Y43828D02*
Y44734D01*
X23600Y43828D02*
X24348D01*
X18600D02*
X21868D01*
X32700Y32200D02*
Y34200D01*
Y32200D02*
X33700D01*
Y34200D01*
X32700D02*
X33700D01*
X32700Y36000D02*
Y38000D01*
Y36000D02*
X33700D01*
Y38000D01*
X32700D02*
X33700D01*
X26700Y44000D02*
Y46000D01*
X25700D02*
X26700D01*
X25700Y44000D02*
Y46000D01*
Y44000D02*
X26700D01*
X24049Y35043D02*
X25151D01*
Y32957D02*
Y35043D01*
X24049Y32957D02*
Y35043D01*
X21449Y32757D02*
X22551D01*
X21449D02*
Y34843D01*
X22551Y32757D02*
Y34843D01*
X29449Y32757D02*
X30551D01*
X29449D02*
Y34843D01*
X30551Y32757D02*
Y34843D01*
X26249Y32757D02*
X27351D01*
X26249D02*
Y34843D01*
X27351Y32757D02*
Y34843D01*
X45049Y47151D02*
X46151D01*
X45049Y45049D02*
X46151D01*
Y47151D01*
X45049Y45049D02*
Y47151D01*
X45400Y41510D02*
Y41600D01*
Y43600D02*
Y43690D01*
X45100Y41600D02*
X45400D01*
X45100D02*
Y43600D01*
X45700D01*
Y41600D02*
Y43600D01*
X45400Y41600D02*
X45700D01*
X39000Y45600D02*
X39090D01*
X36910D02*
X37000D01*
X39000Y45300D02*
Y45600D01*
X37000Y45300D02*
X39000D01*
X37000D02*
Y45900D01*
X39000D01*
Y45600D02*
Y45900D01*
X39200Y43600D02*
X39290D01*
X37110D02*
X37200D01*
X39200Y43300D02*
Y43600D01*
X37200Y43300D02*
X39200D01*
X37200D02*
Y43900D01*
X39200D01*
Y43600D02*
Y43900D01*
X29000Y39600D02*
Y39690D01*
Y37510D02*
Y37600D01*
Y39600D02*
X29300D01*
Y37600D02*
Y39600D01*
X28700Y37600D02*
X29300D01*
X28700D02*
Y39600D01*
X29000D01*
X21100Y41500D02*
X27100D01*
X21100Y42500D02*
X27100D01*
X21100Y41500D02*
Y42500D01*
X27100Y41500D02*
Y42500D01*
X38957Y31972D02*
Y36028D01*
X41043Y31972D02*
Y36028D01*
X38957D02*
X39750D01*
X40250D02*
X41043D01*
X38957Y31972D02*
X41043D01*
D31*
X46456Y46600D02*
G03*
X46456Y46600I-49J0D01*
G01*
X38549Y36012D02*
G03*
X38549Y36012I-49J0D01*
G01*
D32*
X39469Y35634D02*
G03*
X39469Y35634I-118J0D01*
G01*
D33*
X43365Y45400D02*
X42971D01*
X43168Y45203D02*
Y45597D01*
X38035Y38000D02*
X38429D01*
X38232Y38197D02*
Y37803D01*
X42400Y38235D02*
Y38629D01*
X42203Y38432D02*
X42597D01*
X27765Y39000D02*
X27371D01*
X27568Y38803D02*
Y39197D01*
X27470Y45600D02*
X27863D01*
X27666Y45797D02*
Y45403D01*
D34*
X24598Y33075D02*
D03*
X22002Y34725D02*
D03*
X30004Y34725D02*
D03*
X26803Y34725D02*
D03*
M02*
