%FSLAX24Y24*%
%MOIN*%
G70*
G01*
G75*
G04 Layer_Color=255*
%ADD10C,0.0100*%
%ADD11C,0.0394*%
%ADD12C,0.0551*%
%ADD13C,0.0591*%
%ADD14R,0.0591X0.0591*%
%ADD15O,0.0591X0.1575*%
%ADD16O,0.1575X0.0591*%
%ADD17O,0.0591X0.1772*%
%ADD18O,0.1575X0.0787*%
%ADD19O,0.0787X0.1575*%
%ADD20O,0.0787X0.1772*%
%ADD21R,0.0492X0.0492*%
%ADD22C,0.0492*%
%ADD23R,0.0492X0.0492*%
%ADD24R,0.0728X0.0728*%
%ADD25C,0.0728*%
%ADD26C,0.0472*%
%ADD27C,0.0787*%
%ADD28R,0.0787X0.0787*%
%ADD29R,0.0591X0.0591*%
D11*
X32700Y39650D02*
D03*
D12*
X45400Y38900D02*
D03*
Y35900D02*
D03*
Y44100D02*
D03*
Y41100D02*
D03*
X36500Y45600D02*
D03*
X39500D02*
D03*
X36700Y43600D02*
D03*
X39700D02*
D03*
X29000Y37100D02*
D03*
Y40100D02*
D03*
D13*
X22000Y39000D02*
D03*
X45600Y45600D02*
D03*
X26600Y42000D02*
D03*
X25600D02*
D03*
X24600D02*
D03*
X23600D02*
D03*
X22600D02*
D03*
X38500Y34500D02*
D03*
Y33500D02*
D03*
Y32500D02*
D03*
X41500Y35500D02*
D03*
Y34500D02*
D03*
Y33500D02*
D03*
Y32500D02*
D03*
D14*
X22000Y38000D02*
D03*
X45600Y46600D02*
D03*
D15*
X21553Y45600D02*
D03*
D16*
X22734Y43632D02*
D03*
D17*
X23994Y45600D02*
D03*
D18*
X22734Y43632D02*
D03*
D19*
X21553Y45600D02*
D03*
D20*
X23994D02*
D03*
D21*
X42194Y45400D02*
D03*
X39206Y38000D02*
D03*
X26594Y39000D02*
D03*
D22*
X41406Y45400D02*
D03*
X39994Y38000D02*
D03*
X42400Y40194D02*
D03*
X25806Y39000D02*
D03*
D23*
X42400Y39406D02*
D03*
D24*
X29724Y45600D02*
D03*
D25*
X32676D02*
D03*
D26*
X33200Y32700D02*
D03*
Y33700D02*
D03*
Y36500D02*
D03*
Y37500D02*
D03*
X26200Y45500D02*
D03*
Y44500D02*
D03*
D27*
X24600Y36059D02*
D03*
X22000Y31741D02*
D03*
X30000D02*
D03*
X26800D02*
D03*
D28*
X24600Y31941D02*
D03*
X22000Y35859D02*
D03*
X30000D02*
D03*
X26800D02*
D03*
D29*
X21600Y42000D02*
D03*
X38500Y35500D02*
D03*
M02*
