M48
;Layer_Color=9474304
;FILE_FORMAT=2:4
INCH,LZ
;TYPE=PLATED
T1F00S00C0.0276
T2F00S00C0.0295
T4F00S00C0.0335
T5F00S00C0.0354
T6F00S00C0.0433
T7F00S00C0.0472
;TYPE=NON_PLATED
T8F00S00C0.0787
%
T01
X0262Y0445
Y0455
X0332Y0375
Y0365
Y0337
Y0327
T02
X025806Y039
X026594
X039206Y038
X039994
X0424Y039406
Y040194
X042194Y0454
X041406
T04
X029Y0371
Y0401
X0367Y0436
X0365Y0456
X0395
X0397Y0436
X0454Y0441
Y0411
Y0389
Y0359
T05
X022Y038
Y039
X0216Y042
X0226
X0236
X0246
X0256
X0266
X0385Y0355
Y0345
Y0335
Y0325
X0415
Y0335
Y0345
Y0355
X0456Y0456
Y0466
T06
X029724Y0456
X032676
T07
X022Y031741
X0246Y031941
X0268Y031741
X03
Y035859
X0268
X0246Y036059
X022Y035859
T08
X0327Y03965
M30
