%FSLAX24Y24*%
%MOIN*%
G70*
G01*
G75*
G04 Layer_Physical_Order=2*
G04 Layer_Color=16711680*
%ADD10C,0.0100*%
%ADD11C,0.0394*%
%ADD12C,0.0551*%
%ADD13C,0.0591*%
%ADD14R,0.0591X0.0591*%
%ADD15O,0.0591X0.1575*%
%ADD16O,0.1575X0.0591*%
%ADD17O,0.0591X0.1772*%
%ADD18O,0.1575X0.0787*%
%ADD19O,0.0787X0.1575*%
%ADD20O,0.0787X0.1772*%
%ADD21R,0.0492X0.0492*%
%ADD22C,0.0492*%
%ADD23R,0.0492X0.0492*%
%ADD24R,0.0728X0.0728*%
%ADD25C,0.0728*%
%ADD26C,0.0472*%
%ADD27C,0.0787*%
%ADD28R,0.0787X0.0787*%
%ADD29R,0.0591X0.0591*%
G36*
X46867Y30692D02*
X20692D01*
Y48993D01*
X46867D01*
Y30692D01*
D02*
G37*
%LPC*%
G36*
X22512Y36371D02*
X22050D01*
Y35909D01*
X22512D01*
Y36371D01*
D02*
G37*
G36*
X33200Y36857D02*
X33108Y36845D01*
X33021Y36810D01*
X32947Y36753D01*
X32890Y36679D01*
X32855Y36593D01*
X32843Y36500D01*
X32855Y36407D01*
X32890Y36321D01*
X32947Y36247D01*
X33021Y36190D01*
X33108Y36155D01*
X33200Y36143D01*
X33293Y36155D01*
X33379Y36190D01*
X33453Y36247D01*
X33510Y36321D01*
X33545Y36407D01*
X33557Y36500D01*
X33545Y36593D01*
X33510Y36679D01*
X33453Y36753D01*
X33379Y36810D01*
X33293Y36845D01*
X33200Y36857D01*
D02*
G37*
G36*
X22413Y38413D02*
X21587D01*
Y37587D01*
X22413D01*
Y38413D01*
D02*
G37*
G36*
X38913Y35913D02*
X38087D01*
Y35087D01*
X38913D01*
Y35913D01*
D02*
G37*
G36*
X21950Y35809D02*
X21488D01*
Y35347D01*
X21950D01*
Y35809D01*
D02*
G37*
G36*
Y36371D02*
X21488D01*
Y35909D01*
X21950D01*
Y36371D01*
D02*
G37*
G36*
X45400Y39297D02*
X45297Y39284D01*
X45201Y39244D01*
X45119Y39181D01*
X45056Y39099D01*
X45016Y39003D01*
X45003Y38900D01*
X45016Y38797D01*
X45056Y38701D01*
X45119Y38619D01*
X45201Y38556D01*
X45297Y38516D01*
X45400Y38503D01*
X45503Y38516D01*
X45599Y38556D01*
X45681Y38619D01*
X45744Y38701D01*
X45784Y38797D01*
X45797Y38900D01*
X45784Y39003D01*
X45744Y39099D01*
X45681Y39181D01*
X45599Y39244D01*
X45503Y39284D01*
X45400Y39297D01*
D02*
G37*
G36*
X29000Y40497D02*
X28897Y40484D01*
X28801Y40444D01*
X28719Y40381D01*
X28656Y40299D01*
X28616Y40203D01*
X28603Y40100D01*
X28616Y39997D01*
X28628Y39970D01*
X27829Y39171D01*
X26958D01*
Y39364D01*
X26230D01*
Y38636D01*
X26422D01*
Y38386D01*
X26422Y38386D01*
X26422D01*
X26435Y38321D01*
X26472Y38265D01*
X28050Y36688D01*
X28031Y36641D01*
X25011D01*
X24945Y36628D01*
X24890Y36591D01*
X24820Y36522D01*
X24734Y36558D01*
X24600Y36575D01*
X24466Y36558D01*
X24342Y36506D01*
X24235Y36424D01*
X24153Y36317D01*
X24101Y36193D01*
X24084Y36059D01*
X24101Y35925D01*
X24153Y35801D01*
X24235Y35694D01*
X24342Y35612D01*
X24466Y35560D01*
X24600Y35543D01*
X24734Y35560D01*
X24858Y35612D01*
X24965Y35694D01*
X25047Y35801D01*
X25099Y35925D01*
X25116Y36059D01*
X25099Y36193D01*
X25063Y36279D01*
X25082Y36299D01*
X26288D01*
Y35347D01*
X27312D01*
Y36299D01*
X28019D01*
X28580Y35738D01*
X28580D01*
X28580Y35738D01*
X28580Y35738D01*
Y35738D01*
X28635Y35701D01*
X28701Y35688D01*
X29488D01*
Y35347D01*
X30512D01*
Y36359D01*
X31549D01*
X34029Y33879D01*
X34084Y33842D01*
X34095Y33839D01*
X34150Y33829D01*
X38175D01*
X38197Y33784D01*
X38139Y33708D01*
X38097Y33608D01*
X38083Y33500D01*
X38097Y33392D01*
X38139Y33292D01*
X38205Y33205D01*
X38292Y33139D01*
X38392Y33097D01*
X38500Y33083D01*
X38608Y33097D01*
X38708Y33139D01*
X38795Y33205D01*
X38861Y33292D01*
X38903Y33392D01*
X38917Y33500D01*
X38903Y33608D01*
X38861Y33708D01*
X38795Y33795D01*
X38806Y33829D01*
X39929D01*
X41113Y32645D01*
X41097Y32608D01*
X41083Y32500D01*
X41097Y32392D01*
X41139Y32292D01*
X41205Y32205D01*
X41292Y32139D01*
X41392Y32097D01*
X41500Y32083D01*
X41608Y32097D01*
X41708Y32139D01*
X41795Y32205D01*
X41861Y32292D01*
X41903Y32392D01*
X41917Y32500D01*
X41903Y32608D01*
X41861Y32708D01*
X41795Y32795D01*
X41708Y32861D01*
X41608Y32903D01*
X41500Y32917D01*
X41392Y32903D01*
X41355Y32887D01*
X40121Y34121D01*
X40066Y34158D01*
X40000Y34171D01*
X38825D01*
X38803Y34216D01*
X38861Y34292D01*
X38903Y34392D01*
X38910Y34450D01*
X38090D01*
X38097Y34392D01*
X38139Y34292D01*
X38197Y34216D01*
X38175Y34171D01*
X34221D01*
X31741Y36651D01*
X31686Y36688D01*
X31620Y36701D01*
X29195D01*
X29185Y36750D01*
X29199Y36756D01*
X29281Y36819D01*
X29344Y36901D01*
X29355Y36929D01*
X32800D01*
X32866Y36942D01*
X32921Y36979D01*
X32921Y36979D01*
X32921Y36979D01*
X33100Y37158D01*
X33108Y37155D01*
X33200Y37143D01*
X33293Y37155D01*
X33379Y37190D01*
X33453Y37247D01*
X33510Y37321D01*
X33545Y37408D01*
X33557Y37500D01*
X33545Y37592D01*
X33510Y37679D01*
X33453Y37753D01*
X33379Y37810D01*
X33293Y37845D01*
X33200Y37857D01*
X33108Y37845D01*
X33021Y37810D01*
X32947Y37753D01*
X32890Y37679D01*
X32855Y37592D01*
X32843Y37500D01*
X32855Y37408D01*
X32858Y37400D01*
X32729Y37271D01*
X29355D01*
X29344Y37299D01*
X29281Y37381D01*
X29199Y37444D01*
X29103Y37484D01*
X29000Y37497D01*
X28897Y37484D01*
X28801Y37444D01*
X28719Y37381D01*
X28656Y37299D01*
X28616Y37203D01*
X28603Y37100D01*
X28616Y36997D01*
X28656Y36901D01*
X28719Y36819D01*
X28801Y36756D01*
X28815Y36750D01*
X28805Y36701D01*
X28521D01*
X26765Y38457D01*
Y38636D01*
X26958D01*
Y38829D01*
X27900D01*
X27966Y38842D01*
X28021Y38879D01*
X28870Y39728D01*
X28897Y39716D01*
X29000Y39703D01*
X29103Y39716D01*
X29199Y39756D01*
X29281Y39819D01*
X29344Y39901D01*
X29384Y39997D01*
X29397Y40100D01*
X29384Y40203D01*
X29344Y40299D01*
X29281Y40381D01*
X29199Y40444D01*
X29103Y40484D01*
X29000Y40497D01*
D02*
G37*
G36*
X37091Y43550D02*
X36750D01*
Y43209D01*
X36803Y43216D01*
X36830Y43228D01*
X39985Y40072D01*
X39985D01*
X39985Y40072D01*
X39985Y40072D01*
Y40072D01*
X40041Y40035D01*
X40106Y40022D01*
X42077D01*
X42082Y40010D01*
X42140Y39934D01*
X42216Y39876D01*
X42305Y39839D01*
X42350Y39833D01*
Y40194D01*
Y40554D01*
X42305Y40549D01*
X42216Y40512D01*
X42140Y40453D01*
X42082Y40377D01*
X42077Y40365D01*
X40177D01*
X37072Y43470D01*
X37084Y43497D01*
X37091Y43550D01*
D02*
G37*
G36*
X42761Y40144D02*
X42450D01*
Y39833D01*
X42495Y39839D01*
X42584Y39876D01*
X42660Y39934D01*
X42718Y40010D01*
X42755Y40099D01*
X42761Y40144D01*
D02*
G37*
G36*
X21950Y38950D02*
X21590D01*
X21597Y38892D01*
X21639Y38792D01*
X21705Y38705D01*
X21792Y38639D01*
X21892Y38597D01*
X21950Y38590D01*
Y38950D01*
D02*
G37*
G36*
X22410D02*
X22050D01*
Y38590D01*
X22108Y38597D01*
X22208Y38639D01*
X22295Y38705D01*
X22361Y38792D01*
X22403Y38892D01*
X22410Y38950D01*
D02*
G37*
G36*
X42764Y39770D02*
X42036D01*
Y39042D01*
X42764D01*
Y39770D01*
D02*
G37*
G36*
X22512Y35809D02*
X22050D01*
Y35347D01*
X22269D01*
X25118Y32499D01*
X25114Y32491D01*
D01*
X25099Y32453D01*
X24088D01*
Y32112D01*
X23400D01*
X23334Y32099D01*
X23279Y32062D01*
X23129Y31912D01*
X22483D01*
X22447Y31999D01*
X22365Y32106D01*
X22258Y32188D01*
X22134Y32240D01*
X22000Y32257D01*
X21866Y32240D01*
X21742Y32188D01*
X21635Y32106D01*
X21553Y31999D01*
X21501Y31875D01*
X21484Y31741D01*
X21501Y31607D01*
X21553Y31483D01*
X21635Y31376D01*
X21742Y31294D01*
X21866Y31242D01*
X22000Y31225D01*
X22134Y31242D01*
X22258Y31294D01*
X22365Y31376D01*
X22447Y31483D01*
X22483Y31570D01*
X23200D01*
X23266Y31583D01*
X23321Y31620D01*
X23321Y31620D01*
X23321Y31620D01*
X23471Y31770D01*
X24088D01*
Y31429D01*
X25112D01*
Y32440D01*
X25150Y32455D01*
D01*
X25158Y32459D01*
X25997Y31620D01*
X25997D01*
X25997Y31620D01*
X25997Y31620D01*
Y31620D01*
X26053Y31583D01*
X26118Y31570D01*
X26317D01*
X26353Y31483D01*
X26435Y31376D01*
X26542Y31294D01*
X26666Y31242D01*
X26750Y31231D01*
Y31741D01*
Y32251D01*
X26666Y32240D01*
X26542Y32188D01*
X26435Y32106D01*
X26353Y31999D01*
X26317Y31912D01*
X26189D01*
X22512Y35590D01*
Y35809D01*
D02*
G37*
G36*
X38550Y32910D02*
Y32550D01*
X38910D01*
X38903Y32608D01*
X38861Y32708D01*
X38795Y32795D01*
X38708Y32861D01*
X38608Y32903D01*
X38550Y32910D01*
D02*
G37*
G36*
X38450D02*
X38392Y32903D01*
X38292Y32861D01*
X38205Y32795D01*
X38139Y32708D01*
X38124Y32671D01*
X33582D01*
X33557Y32700D01*
X33551Y32650D01*
X33250D01*
Y32349D01*
X33293Y32355D01*
X33306Y32360D01*
X33334Y32342D01*
X33400Y32329D01*
X38124D01*
X38139Y32292D01*
X38205Y32205D01*
X38292Y32139D01*
X38392Y32097D01*
X38450Y32090D01*
Y32500D01*
Y32910D01*
D02*
G37*
G36*
X26850Y32251D02*
Y31791D01*
X27310D01*
X27299Y31875D01*
X27247Y31999D01*
X27165Y32106D01*
X27058Y32188D01*
X26934Y32240D01*
X26850Y32251D01*
D02*
G37*
G36*
X38910Y32450D02*
X38550D01*
Y32090D01*
X38608Y32097D01*
X38708Y32139D01*
X38795Y32205D01*
X38861Y32292D01*
X38903Y32392D01*
X38910Y32450D01*
D02*
G37*
G36*
X33150Y32650D02*
X32849D01*
X32855Y32608D01*
X32858Y32600D01*
X31559Y31301D01*
X30346D01*
X30330Y31349D01*
X30365Y31376D01*
X30447Y31483D01*
X30499Y31607D01*
X30516Y31741D01*
X30499Y31875D01*
X30447Y31999D01*
X30365Y32106D01*
X30258Y32188D01*
X30134Y32240D01*
X30000Y32257D01*
X29866Y32240D01*
X29742Y32188D01*
X29635Y32106D01*
X29553Y31999D01*
X29501Y31875D01*
X29484Y31741D01*
X29501Y31607D01*
X29553Y31483D01*
X29635Y31376D01*
X29670Y31349D01*
X29654Y31301D01*
X27482D01*
X27263Y31521D01*
X27299Y31607D01*
X27310Y31691D01*
X26850D01*
Y31231D01*
X26934Y31242D01*
X27020Y31278D01*
X27290Y31009D01*
X27290D01*
X27290Y31009D01*
X27290Y31009D01*
Y31009D01*
X27345Y30972D01*
X27411Y30959D01*
X31630D01*
X31696Y30972D01*
X31751Y31009D01*
X33100Y32358D01*
X33108Y32355D01*
X33150Y32349D01*
Y32650D01*
D02*
G37*
G36*
Y33051D02*
X33108Y33045D01*
X33021Y33010D01*
X32947Y32953D01*
X32890Y32879D01*
X32855Y32792D01*
X32849Y32750D01*
X33150D01*
Y33051D01*
D02*
G37*
G36*
X38450Y34910D02*
X38392Y34903D01*
X38292Y34861D01*
X38205Y34795D01*
X38139Y34708D01*
X38097Y34608D01*
X38090Y34550D01*
X38450D01*
Y34910D01*
D02*
G37*
G36*
X38550D02*
Y34550D01*
X38910D01*
X38903Y34608D01*
X38861Y34708D01*
X38795Y34795D01*
X38708Y34861D01*
X38608Y34903D01*
X38550Y34910D01*
D02*
G37*
G36*
X41500Y35917D02*
X41392Y35903D01*
X41292Y35861D01*
X41205Y35795D01*
X41139Y35708D01*
X41097Y35608D01*
X41083Y35500D01*
X41097Y35392D01*
X41139Y35292D01*
X41205Y35205D01*
X41292Y35139D01*
X41392Y35097D01*
X41500Y35083D01*
X41608Y35097D01*
X41708Y35139D01*
X41795Y35205D01*
X41861Y35292D01*
X41903Y35392D01*
X41917Y35500D01*
X41903Y35608D01*
X41861Y35708D01*
X41795Y35795D01*
X41708Y35861D01*
X41608Y35903D01*
X41500Y35917D01*
D02*
G37*
G36*
X33250Y33051D02*
Y32750D01*
X33551D01*
X33545Y32792D01*
X33510Y32879D01*
X33453Y32953D01*
X33379Y33010D01*
X33293Y33045D01*
X33250Y33051D01*
D02*
G37*
G36*
X33200Y34057D02*
X33108Y34045D01*
X33021Y34010D01*
X32947Y33953D01*
X32890Y33879D01*
X32855Y33793D01*
X32843Y33700D01*
X32855Y33607D01*
X32890Y33521D01*
X32947Y33447D01*
X33021Y33390D01*
X33108Y33355D01*
X33200Y33343D01*
X33293Y33355D01*
X33379Y33390D01*
X33453Y33447D01*
X33510Y33521D01*
X33545Y33607D01*
X33557Y33700D01*
X33545Y33793D01*
X33510Y33879D01*
X33453Y33953D01*
X33379Y34010D01*
X33293Y34045D01*
X33200Y34057D01*
D02*
G37*
G36*
X41500Y34917D02*
X41392Y34903D01*
X41292Y34861D01*
X41205Y34795D01*
X41139Y34708D01*
X41097Y34608D01*
X41083Y34500D01*
X41097Y34392D01*
X41139Y34292D01*
X41205Y34205D01*
X41292Y34139D01*
X41392Y34097D01*
X41500Y34083D01*
X41608Y34097D01*
X41708Y34139D01*
X41795Y34205D01*
X41861Y34292D01*
X41903Y34392D01*
X41917Y34500D01*
X41903Y34608D01*
X41861Y34708D01*
X41795Y34795D01*
X41708Y34861D01*
X41608Y34903D01*
X41500Y34917D01*
D02*
G37*
G36*
X32626Y45550D02*
X32197D01*
X32207Y45474D01*
X32255Y45357D01*
X32332Y45256D01*
X32433Y45179D01*
X32550Y45130D01*
X32626Y45120D01*
Y45550D01*
D02*
G37*
G36*
X24044Y46602D02*
Y45600D01*
X23994D01*
Y45550D01*
X23477D01*
Y45108D01*
X23495Y44974D01*
X23547Y44850D01*
X23603Y44776D01*
X23581Y44731D01*
X21990D01*
X21924Y44718D01*
X21869Y44681D01*
X21009Y43821D01*
X20972Y43766D01*
X20959Y43700D01*
Y40490D01*
X20959Y40490D01*
X20959D01*
X20972Y40424D01*
X21009Y40369D01*
X21829Y39549D01*
Y39376D01*
X21792Y39361D01*
X21705Y39295D01*
X21639Y39208D01*
X21597Y39108D01*
X21590Y39050D01*
X22410D01*
X22403Y39108D01*
X22361Y39208D01*
X22295Y39295D01*
X22208Y39361D01*
X22171Y39376D01*
Y39620D01*
X22158Y39686D01*
X22121Y39741D01*
X21301Y40561D01*
Y41587D01*
X21771D01*
X24479Y38879D01*
X24534Y38842D01*
X24600Y38829D01*
X25483D01*
X25488Y38816D01*
X25547Y38740D01*
X25623Y38682D01*
X25711Y38645D01*
X25806Y38633D01*
X25901Y38645D01*
X25990Y38682D01*
X26066Y38740D01*
X26124Y38816D01*
X26161Y38905D01*
X26174Y39000D01*
X26161Y39095D01*
X26124Y39184D01*
X26066Y39260D01*
X25990Y39318D01*
X25901Y39355D01*
X25806Y39367D01*
X25711Y39355D01*
X25623Y39318D01*
X25547Y39260D01*
X25488Y39184D01*
X25483Y39171D01*
X24671D01*
X22013Y41829D01*
Y42413D01*
X21301D01*
Y43629D01*
X22061Y44389D01*
X23994D01*
X24059Y44402D01*
X24115Y44439D01*
X24152Y44494D01*
X24165Y44560D01*
X24165Y44560D01*
X24165Y44560D01*
Y44560D01*
Y44625D01*
X24252Y44661D01*
X24359Y44743D01*
X24441Y44850D01*
X24492Y44974D01*
X24510Y45108D01*
Y45429D01*
X24969D01*
X25019Y45379D01*
X25074Y45342D01*
X25085Y45339D01*
X25140Y45329D01*
X25887D01*
X25890Y45321D01*
X25947Y45247D01*
X26021Y45190D01*
X26107Y45155D01*
X26150Y45149D01*
Y45500D01*
Y45851D01*
X26107Y45845D01*
X26021Y45810D01*
X25947Y45753D01*
X25890Y45679D01*
X25887Y45671D01*
X25211D01*
X25161Y45721D01*
X25106Y45758D01*
X25040Y45771D01*
X24510D01*
Y46092D01*
X24492Y46226D01*
X24441Y46350D01*
X24359Y46457D01*
X24252Y46539D01*
X24127Y46591D01*
X24044Y46602D01*
D02*
G37*
G36*
X26551Y45450D02*
X26250D01*
Y45149D01*
X26293Y45155D01*
X26379Y45190D01*
X26453Y45247D01*
X26510Y45321D01*
X26545Y45408D01*
X26551Y45450D01*
D02*
G37*
G36*
X45400Y44497D02*
X45297Y44484D01*
X45201Y44444D01*
X45119Y44381D01*
X45056Y44299D01*
X45016Y44203D01*
X45003Y44100D01*
X45016Y43997D01*
X45056Y43901D01*
X45119Y43819D01*
X45201Y43756D01*
X45297Y43716D01*
X45400Y43703D01*
X45503Y43716D01*
X45599Y43756D01*
X45681Y43819D01*
X45744Y43901D01*
X45784Y43997D01*
X45797Y44100D01*
X45784Y44203D01*
X45744Y44299D01*
X45681Y44381D01*
X45599Y44444D01*
X45503Y44484D01*
X45400Y44497D01*
D02*
G37*
G36*
X21553Y46510D02*
X21419Y46492D01*
X21295Y46441D01*
X21188Y46359D01*
X21106Y46252D01*
X21054Y46127D01*
X21037Y45994D01*
Y45206D01*
X21054Y45073D01*
X21106Y44948D01*
X21188Y44841D01*
X21295Y44759D01*
X21419Y44708D01*
X21553Y44690D01*
X21686Y44708D01*
X21811Y44759D01*
X21918Y44841D01*
X22000Y44948D01*
X22051Y45073D01*
X22069Y45206D01*
Y45994D01*
X22051Y46127D01*
X22000Y46252D01*
X21918Y46359D01*
X21811Y46441D01*
X21686Y46492D01*
X21553Y46510D01*
D02*
G37*
G36*
X39500Y45997D02*
X39397Y45984D01*
X39301Y45944D01*
X39219Y45881D01*
X39156Y45799D01*
X39116Y45703D01*
X39103Y45600D01*
X39116Y45497D01*
X39156Y45401D01*
X39219Y45319D01*
X39301Y45256D01*
X39397Y45216D01*
X39500Y45203D01*
X39603Y45216D01*
X39654Y45238D01*
X39700Y45229D01*
X41083D01*
X41088Y45216D01*
X41147Y45140D01*
X41223Y45082D01*
X41311Y45045D01*
X41406Y45033D01*
X41501Y45045D01*
X41590Y45082D01*
X41666Y45140D01*
X41724Y45216D01*
X41761Y45305D01*
X41774Y45400D01*
X41761Y45495D01*
X41724Y45584D01*
X41666Y45660D01*
X41590Y45718D01*
X41501Y45755D01*
X41406Y45767D01*
X41311Y45755D01*
X41223Y45718D01*
X41147Y45660D01*
X41088Y45584D01*
X41083Y45571D01*
X39922D01*
X39897Y45600D01*
X39884Y45703D01*
X39844Y45799D01*
X39781Y45881D01*
X39699Y45944D01*
X39603Y45984D01*
X39500Y45997D01*
D02*
G37*
G36*
X45600Y46017D02*
X45492Y46003D01*
X45392Y45961D01*
X45305Y45895D01*
X45239Y45808D01*
X45224Y45771D01*
X44100D01*
X44034Y45758D01*
X43979Y45721D01*
X43829Y45571D01*
X42558D01*
Y45764D01*
X41830D01*
Y45036D01*
X42558D01*
Y45229D01*
X43900D01*
X43966Y45242D01*
X44021Y45279D01*
X44171Y45429D01*
X45224D01*
X45239Y45392D01*
X45305Y45305D01*
X45392Y45239D01*
X45492Y45197D01*
X45600Y45183D01*
X45708Y45197D01*
X45808Y45239D01*
X45895Y45305D01*
X45961Y45392D01*
X46003Y45492D01*
X46017Y45600D01*
X46003Y45708D01*
X45961Y45808D01*
X45895Y45895D01*
X45808Y45961D01*
X45708Y46003D01*
X45600Y46017D01*
D02*
G37*
G36*
X46013Y46550D02*
X45650D01*
Y46187D01*
X46013D01*
Y46550D01*
D02*
G37*
G36*
X45550Y47013D02*
X45187D01*
Y46650D01*
X45550D01*
Y47013D01*
D02*
G37*
G36*
X46013D02*
X45650D01*
Y46650D01*
X46013D01*
Y47013D01*
D02*
G37*
G36*
X23944Y46602D02*
X23860Y46591D01*
X23736Y46539D01*
X23629Y46457D01*
X23547Y46350D01*
X23495Y46226D01*
X23477Y46092D01*
Y45650D01*
X23944D01*
Y46602D01*
D02*
G37*
G36*
X32096Y46351D02*
X26880D01*
X26814Y46338D01*
X26759Y46301D01*
X26300Y45842D01*
X26293Y45845D01*
X26250Y45851D01*
Y45550D01*
X26551D01*
X26545Y45592D01*
X26542Y45600D01*
X26951Y46009D01*
X29241D01*
Y45771D01*
X27300D01*
X27234Y45758D01*
X27179Y45721D01*
X26300Y44842D01*
X26293Y44845D01*
X26200Y44857D01*
X26107Y44845D01*
X26021Y44810D01*
X25947Y44753D01*
X25890Y44679D01*
X25855Y44592D01*
X25843Y44500D01*
X25855Y44408D01*
X25890Y44321D01*
X25947Y44247D01*
X26021Y44190D01*
X26029Y44187D01*
Y43671D01*
X24745Y42387D01*
X24708Y42403D01*
X24600Y42417D01*
X24492Y42403D01*
X24392Y42361D01*
X24305Y42295D01*
X24239Y42208D01*
X24197Y42108D01*
X24183Y42000D01*
X24197Y41892D01*
X24239Y41792D01*
X24305Y41705D01*
X24392Y41639D01*
X24492Y41597D01*
X24600Y41583D01*
X24708Y41597D01*
X24808Y41639D01*
X24895Y41705D01*
X24961Y41792D01*
X25003Y41892D01*
X25017Y42000D01*
X25003Y42108D01*
X24987Y42145D01*
X26321Y43479D01*
X26358Y43534D01*
X26371Y43600D01*
X26371Y43600D01*
X26371Y43600D01*
Y43600D01*
Y44187D01*
X26379Y44190D01*
X26453Y44247D01*
X26510Y44321D01*
X26545Y44408D01*
X26557Y44500D01*
X26545Y44592D01*
X26542Y44600D01*
X27371Y45429D01*
X29241D01*
Y45118D01*
X29964D01*
X36682Y38399D01*
X36738Y38362D01*
X36804Y38349D01*
X38842D01*
Y37636D01*
X39570D01*
Y38349D01*
X39772D01*
X39788Y38301D01*
X39734Y38260D01*
X39676Y38184D01*
X39639Y38095D01*
X39626Y38000D01*
X39639Y37905D01*
X39676Y37816D01*
X39734Y37740D01*
X39810Y37682D01*
X39899Y37645D01*
X39994Y37633D01*
X40089Y37645D01*
X40177Y37682D01*
X40253Y37740D01*
X40312Y37816D01*
X40349Y37905D01*
X40361Y38000D01*
X40349Y38095D01*
X40312Y38184D01*
X40253Y38260D01*
X40177Y38318D01*
X40183Y38349D01*
X42709D01*
X45028Y36030D01*
X45016Y36003D01*
X45003Y35900D01*
X45016Y35797D01*
X45028Y35770D01*
X42929Y33671D01*
X41876D01*
X41861Y33708D01*
X41795Y33795D01*
X41708Y33861D01*
X41608Y33903D01*
X41500Y33917D01*
X41392Y33903D01*
X41292Y33861D01*
X41205Y33795D01*
X41139Y33708D01*
X41097Y33608D01*
X41083Y33500D01*
X41097Y33392D01*
X41139Y33292D01*
X41205Y33205D01*
X41292Y33139D01*
X41392Y33097D01*
X41500Y33083D01*
X41608Y33097D01*
X41708Y33139D01*
X41795Y33205D01*
X41861Y33292D01*
X41876Y33329D01*
X43000D01*
X43066Y33342D01*
X43121Y33379D01*
X45270Y35528D01*
X45297Y35516D01*
X45400Y35503D01*
X45503Y35516D01*
X45599Y35556D01*
X45681Y35619D01*
X45744Y35701D01*
X45784Y35797D01*
X45797Y35900D01*
X45784Y36003D01*
X45744Y36099D01*
X45681Y36181D01*
X45599Y36244D01*
X45503Y36284D01*
X45400Y36297D01*
X45297Y36284D01*
X45270Y36272D01*
X42901Y38641D01*
X42846Y38678D01*
X42780Y38691D01*
X36875D01*
X30206Y45360D01*
Y46009D01*
X32025D01*
X32236Y45798D01*
X32207Y45726D01*
X32197Y45650D01*
X32626D01*
Y46080D01*
X32550Y46070D01*
X32479Y46040D01*
X32218Y46301D01*
X32162Y46338D01*
X32096Y46351D01*
D02*
G37*
G36*
X45550Y46550D02*
X45187D01*
Y46187D01*
X45550D01*
Y46550D01*
D02*
G37*
G36*
X36750Y43991D02*
Y43650D01*
X37091D01*
X37084Y43703D01*
X37044Y43799D01*
X36981Y43881D01*
X36899Y43944D01*
X36803Y43984D01*
X36750Y43991D01*
D02*
G37*
G36*
X23600Y42417D02*
X23492Y42403D01*
X23392Y42361D01*
X23305Y42295D01*
X23239Y42208D01*
X23197Y42108D01*
X23183Y42000D01*
X23197Y41892D01*
X23239Y41792D01*
X23305Y41705D01*
X23392Y41639D01*
X23492Y41597D01*
X23600Y41583D01*
X23708Y41597D01*
X23808Y41639D01*
X23895Y41705D01*
X23961Y41792D01*
X24003Y41892D01*
X24017Y42000D01*
X24003Y42108D01*
X23961Y42208D01*
X23895Y42295D01*
X23808Y42361D01*
X23708Y42403D01*
X23600Y42417D01*
D02*
G37*
G36*
X25550Y41950D02*
X25190D01*
X25197Y41892D01*
X25239Y41792D01*
X25305Y41705D01*
X25392Y41639D01*
X25492Y41597D01*
X25550Y41590D01*
Y41950D01*
D02*
G37*
G36*
X27010D02*
X26650D01*
Y41590D01*
X26708Y41597D01*
X26808Y41639D01*
X26895Y41705D01*
X26961Y41792D01*
X27003Y41892D01*
X27010Y41950D01*
D02*
G37*
G36*
X42450Y40554D02*
Y40244D01*
X42761D01*
X42755Y40289D01*
X42718Y40377D01*
X42660Y40453D01*
X42584Y40512D01*
X42495Y40549D01*
X42450Y40554D01*
D02*
G37*
G36*
X45400Y41497D02*
X45297Y41484D01*
X45201Y41444D01*
X45119Y41381D01*
X45056Y41299D01*
X45016Y41203D01*
X45003Y41100D01*
X45016Y40997D01*
X45056Y40901D01*
X45119Y40819D01*
X45201Y40756D01*
X45297Y40716D01*
X45400Y40703D01*
X45503Y40716D01*
X45599Y40756D01*
X45681Y40819D01*
X45744Y40901D01*
X45784Y40997D01*
X45797Y41100D01*
X45784Y41203D01*
X45744Y41299D01*
X45681Y41381D01*
X45599Y41444D01*
X45503Y41484D01*
X45400Y41497D01*
D02*
G37*
G36*
X22600Y42417D02*
X22492Y42403D01*
X22392Y42361D01*
X22305Y42295D01*
X22239Y42208D01*
X22197Y42108D01*
X22183Y42000D01*
X22197Y41892D01*
X22239Y41792D01*
X22305Y41705D01*
X22392Y41639D01*
X22492Y41597D01*
X22600Y41583D01*
X22708Y41597D01*
X22808Y41639D01*
X22895Y41705D01*
X22961Y41792D01*
X23003Y41892D01*
X23017Y42000D01*
X23003Y42108D01*
X22961Y42208D01*
X22895Y42295D01*
X22808Y42361D01*
X22708Y42403D01*
X22600Y42417D01*
D02*
G37*
G36*
X25550Y42410D02*
X25492Y42403D01*
X25392Y42361D01*
X25305Y42295D01*
X25239Y42208D01*
X25197Y42108D01*
X25190Y42050D01*
X25550D01*
Y42410D01*
D02*
G37*
G36*
X36500Y45997D02*
X36397Y45984D01*
X36301Y45944D01*
X36219Y45881D01*
X36156Y45799D01*
X36116Y45703D01*
X36103Y45600D01*
X36116Y45497D01*
X36156Y45401D01*
X36219Y45319D01*
X36301Y45256D01*
X36397Y45216D01*
X36500Y45203D01*
X36603Y45216D01*
X36699Y45256D01*
X36781Y45319D01*
X36844Y45401D01*
X36855Y45429D01*
X37629D01*
X39328Y43730D01*
X39316Y43703D01*
X39303Y43600D01*
X39316Y43497D01*
X39356Y43401D01*
X39419Y43319D01*
X39501Y43256D01*
X39597Y43216D01*
X39700Y43203D01*
X39803Y43216D01*
X39899Y43256D01*
X39981Y43319D01*
X40044Y43401D01*
X40084Y43497D01*
X40097Y43600D01*
X40084Y43703D01*
X40044Y43799D01*
X39981Y43881D01*
X39899Y43944D01*
X39803Y43984D01*
X39700Y43997D01*
X39597Y43984D01*
X39570Y43972D01*
X37821Y45721D01*
X37766Y45758D01*
X37700Y45771D01*
X36855D01*
X36844Y45799D01*
X36781Y45881D01*
X36699Y45944D01*
X36603Y45984D01*
X36500Y45997D01*
D02*
G37*
G36*
X36650Y43550D02*
X36309D01*
X36316Y43497D01*
X36356Y43401D01*
X36419Y43319D01*
X36501Y43256D01*
X36597Y43216D01*
X36650Y43209D01*
Y43550D01*
D02*
G37*
G36*
X32726Y46080D02*
Y45600D01*
Y45120D01*
X32802Y45130D01*
X32920Y45179D01*
X33020Y45256D01*
X33098Y45357D01*
X33127Y45429D01*
X34629D01*
X36328Y43730D01*
X36316Y43703D01*
X36309Y43650D01*
X36650D01*
Y43991D01*
X36597Y43984D01*
X36570Y43972D01*
X34821Y45721D01*
X34766Y45758D01*
X34700Y45771D01*
X33127D01*
X33098Y45843D01*
X33020Y45944D01*
X32920Y46021D01*
X32802Y46070D01*
X32726Y46080D01*
D02*
G37*
G36*
X26650Y42410D02*
Y42050D01*
X27010D01*
X27003Y42108D01*
X26961Y42208D01*
X26895Y42295D01*
X26808Y42361D01*
X26708Y42403D01*
X26650Y42410D01*
D02*
G37*
G36*
X26550D02*
X26492Y42403D01*
X26392Y42361D01*
X26305Y42295D01*
X26239Y42208D01*
X26224Y42171D01*
X25976D01*
X25961Y42208D01*
X25895Y42295D01*
X25808Y42361D01*
X25708Y42403D01*
X25650Y42410D01*
Y42000D01*
Y41590D01*
X25708Y41597D01*
X25808Y41639D01*
X25895Y41705D01*
X25961Y41792D01*
X25976Y41829D01*
X26224D01*
X26239Y41792D01*
X26305Y41705D01*
X26392Y41639D01*
X26492Y41597D01*
X26550Y41590D01*
Y42000D01*
Y42410D01*
D02*
G37*
G36*
X23128Y44148D02*
X22340D01*
X22207Y44130D01*
X22082Y44079D01*
X21975Y43997D01*
X21893Y43890D01*
X21842Y43765D01*
X21824Y43632D01*
X21842Y43498D01*
X21893Y43373D01*
X21975Y43266D01*
X22082Y43184D01*
X22207Y43133D01*
X22340Y43115D01*
X23128D01*
X23261Y43133D01*
X23386Y43184D01*
X23493Y43266D01*
X23575Y43373D01*
X23626Y43498D01*
X23644Y43632D01*
X23626Y43765D01*
X23575Y43890D01*
X23493Y43997D01*
X23386Y44079D01*
X23261Y44130D01*
X23128Y44148D01*
D02*
G37*
%LPD*%
D10*
X26200Y43600D02*
Y44500D01*
X29724Y45600D02*
X36804Y38520D01*
X41500Y33500D02*
X43000D01*
X37700Y45600D02*
X39700Y43600D01*
X36500Y45600D02*
X37700D01*
X22000Y31741D02*
X23200D01*
X23400Y31941D01*
X24600D01*
X28701Y35859D02*
X30000D01*
X24600Y39000D02*
X25806D01*
X26594Y38386D02*
Y39000D01*
X40000Y34000D02*
X41500Y32500D01*
X22000Y35859D02*
X26118Y31741D01*
X27411Y31130D02*
X31630D01*
X33400Y32500D02*
X38500D01*
X23994Y45600D02*
X25040D01*
X25140Y45500D01*
X26200D01*
X32096Y46180D02*
X32676Y45600D01*
X34700D01*
X36700Y43600D01*
X25600Y42000D02*
X26600D01*
X36700Y43600D02*
X40106Y40194D01*
X43900Y45400D02*
X44100Y45600D01*
X36804Y38520D02*
X42780D01*
X45400Y35900D01*
X26200Y44500D02*
X27300Y45600D01*
X29724D01*
X21600Y42000D02*
X24600Y39000D01*
X26594Y38386D02*
X28450Y36530D01*
X31620D01*
X34150Y34000D01*
X40000D01*
X29000Y37100D02*
X32800D01*
X33200Y37500D01*
X26800Y31741D02*
X27411Y31130D01*
X31630D02*
X33200Y32700D01*
X33400Y32500D01*
X40106Y40194D02*
X42400D01*
X26200Y45500D02*
X26880Y46180D01*
X32096D01*
X39700Y45400D02*
X41406D01*
X39500Y45600D02*
X39700Y45400D01*
X44100Y45600D02*
X45600D01*
X42194Y45400D02*
X43900D01*
X22000Y39000D02*
Y39620D01*
X21130Y40490D02*
X22000Y39620D01*
X21130Y40490D02*
Y43700D01*
X21990Y44560D01*
X23994D01*
Y45600D01*
X24600Y42000D02*
X26200Y43600D01*
X28090Y36470D02*
X28701Y35859D01*
X25011Y36470D02*
X28090D01*
X24600Y36059D02*
X25011Y36470D01*
X26118Y31741D02*
X26800D01*
X43000Y33500D02*
X45400Y35900D01*
X27900Y39000D02*
X29000Y40100D01*
X26594Y39000D02*
X27900D01*
D11*
X32700Y39650D02*
D03*
D12*
X45400Y38900D02*
D03*
Y35900D02*
D03*
Y44100D02*
D03*
Y41100D02*
D03*
X36500Y45600D02*
D03*
X39500D02*
D03*
X36700Y43600D02*
D03*
X39700D02*
D03*
X29000Y37100D02*
D03*
Y40100D02*
D03*
D13*
X22000Y39000D02*
D03*
X45600Y45600D02*
D03*
X26600Y42000D02*
D03*
X25600D02*
D03*
X24600D02*
D03*
X23600D02*
D03*
X22600D02*
D03*
X38500Y34500D02*
D03*
Y33500D02*
D03*
Y32500D02*
D03*
X41500Y35500D02*
D03*
Y34500D02*
D03*
Y33500D02*
D03*
Y32500D02*
D03*
D14*
X22000Y38000D02*
D03*
X45600Y46600D02*
D03*
D15*
X21553Y45600D02*
D03*
D16*
X22734Y43632D02*
D03*
D17*
X23994Y45600D02*
D03*
D18*
X22734Y43632D02*
D03*
D19*
X21553Y45600D02*
D03*
D20*
X23994D02*
D03*
D21*
X42194Y45400D02*
D03*
X39206Y38000D02*
D03*
X26594Y39000D02*
D03*
D22*
X41406Y45400D02*
D03*
X39994Y38000D02*
D03*
X42400Y40194D02*
D03*
X25806Y39000D02*
D03*
D23*
X42400Y39406D02*
D03*
D24*
X29724Y45600D02*
D03*
D25*
X32676D02*
D03*
D26*
X33200Y32700D02*
D03*
Y33700D02*
D03*
Y36500D02*
D03*
Y37500D02*
D03*
X26200Y45500D02*
D03*
Y44500D02*
D03*
D27*
X24600Y36059D02*
D03*
X22000Y31741D02*
D03*
X30000D02*
D03*
X26800D02*
D03*
D28*
X24600Y31941D02*
D03*
X22000Y35859D02*
D03*
X30000D02*
D03*
X26800D02*
D03*
D29*
X21600Y42000D02*
D03*
X38500Y35500D02*
D03*
M02*
