%FSLAX25Y25*%
%MOIN*%
G70*
G01*
G75*
G04 Layer_Color=16711935*
%ADD10C,0.01000*%
%ADD11C,0.03937*%
%ADD12C,0.05512*%
%ADD13C,0.05906*%
%ADD14R,0.05906X0.05906*%
%ADD15O,0.05906X0.15748*%
%ADD16O,0.15748X0.05906*%
%ADD17O,0.05906X0.17716*%
%ADD18O,0.15748X0.07874*%
%ADD19O,0.07874X0.15748*%
%ADD20O,0.07874X0.17716*%
%ADD21R,0.04921X0.04921*%
%ADD22C,0.04921*%
%ADD23R,0.04921X0.04921*%
%ADD24R,0.07284X0.07284*%
%ADD25C,0.07284*%
%ADD26C,0.04724*%
%ADD27C,0.07874*%
%ADD28R,0.07874X0.07874*%
%ADD29R,0.05906X0.05906*%
%ADD30C,0.00787*%
%ADD31C,0.00984*%
%ADD32C,0.02362*%
%ADD33C,0.00591*%
%ADD34R,0.11024X0.03150*%
%ADD35C,0.03937*%
%ADD36C,0.00118*%
D35*
X239937Y451079D02*
Y460921D01*
X223402Y436315D02*
X231276D01*
X215528Y452063D02*
Y459937D01*
D36*
X187126Y479881D02*
Y480669D01*
X187520Y481062D01*
X187913Y480669D01*
Y479881D01*
Y480472D01*
X187126D01*
X188307Y479881D02*
X188700D01*
X188504D01*
Y481062D01*
X188307D01*
X189881Y479881D02*
X189487D01*
X189291Y480078D01*
Y480472D01*
X189487Y480669D01*
X189881D01*
X190078Y480472D01*
Y480275D01*
X189291D01*
X190471Y480669D02*
Y479881D01*
Y480275D01*
X190668Y480472D01*
X190865Y480669D01*
X191062D01*
X191849Y480865D02*
Y480669D01*
X191652D01*
X192046D01*
X191849D01*
Y480078D01*
X192046Y479881D01*
X193817D02*
Y481062D01*
X194407D01*
X194604Y480865D01*
Y480472D01*
X194407Y480275D01*
X193817D01*
X195785Y480865D02*
X195588Y481062D01*
X195194D01*
X194997Y480865D01*
Y480078D01*
X195194Y479881D01*
X195588D01*
X195785Y480078D01*
X196178Y481062D02*
Y479881D01*
X196768D01*
X196965Y480078D01*
Y480275D01*
X196768Y480472D01*
X196178D01*
X196768D01*
X196965Y480669D01*
Y480865D01*
X196768Y481062D01*
X196178D01*
X198736Y479881D02*
Y480865D01*
Y480472D01*
X198540D01*
X198933D01*
X198736D01*
Y480865D01*
X198933Y481062D01*
X199720Y480669D02*
X200114D01*
X200311Y480472D01*
Y479881D01*
X199720D01*
X199523Y480078D01*
X199720Y480275D01*
X200311D01*
X200704Y481062D02*
Y479881D01*
X201295D01*
X201491Y480078D01*
Y480275D01*
Y480472D01*
X201295Y480669D01*
X200704D01*
X203262Y480865D02*
Y480669D01*
X203066D01*
X203459D01*
X203262D01*
Y480078D01*
X203459Y479881D01*
X204246D02*
X204640D01*
X204837Y480078D01*
Y480472D01*
X204640Y480669D01*
X204246D01*
X204050Y480472D01*
Y480078D01*
X204246Y479881D01*
X206411D02*
X207001D01*
X207198Y480078D01*
X207001Y480275D01*
X206608D01*
X206411Y480472D01*
X206608Y480669D01*
X207198D01*
X207592Y479881D02*
X207985D01*
X207789D01*
Y481062D01*
X207592D01*
X208772Y479881D02*
X209166D01*
X209363Y480078D01*
Y480472D01*
X209166Y480669D01*
X208772D01*
X208576Y480472D01*
Y480078D01*
X208772Y479881D01*
X209953Y480865D02*
Y480669D01*
X209756D01*
X210150D01*
X209953D01*
Y480078D01*
X210150Y479881D01*
X212708Y481062D02*
Y479881D01*
X212118D01*
X211921Y480078D01*
Y480472D01*
X212118Y480669D01*
X212708D01*
X213692Y479881D02*
X213299D01*
X213102Y480078D01*
Y480472D01*
X213299Y480669D01*
X213692D01*
X213889Y480472D01*
Y480275D01*
X213102D01*
X214479Y480865D02*
Y480669D01*
X214282D01*
X214676D01*
X214479D01*
Y480078D01*
X214676Y479881D01*
X215463Y480669D02*
X215857D01*
X216054Y480472D01*
Y479881D01*
X215463D01*
X215266Y480078D01*
X215463Y480275D01*
X216054D01*
X216447Y479881D02*
X216841D01*
X216644D01*
Y480669D01*
X216447D01*
X217431Y479881D02*
X217825D01*
X217628D01*
Y481062D01*
X217431D01*
X218415Y479881D02*
X219005D01*
X219202Y480078D01*
X219005Y480275D01*
X218612D01*
X218415Y480472D01*
X218612Y480669D01*
X219202D01*
X187126Y481850D02*
Y482637D01*
X187520Y483031D01*
X187913Y482637D01*
Y481850D01*
Y482440D01*
X187126D01*
X188307Y481850D02*
X188897D01*
X189094Y482047D01*
X188897Y482244D01*
X188504D01*
X188307Y482440D01*
X188504Y482637D01*
X189094D01*
X189487Y481850D02*
X190078D01*
X190275Y482047D01*
X190078Y482244D01*
X189684D01*
X189487Y482440D01*
X189684Y482637D01*
X190275D01*
X190668Y481850D02*
X191062D01*
X190865D01*
Y482637D01*
X190668D01*
X192046Y481456D02*
X192242D01*
X192439Y481653D01*
Y482637D01*
X191849D01*
X191652Y482440D01*
Y482047D01*
X191849Y481850D01*
X192439D01*
X192833D02*
Y482637D01*
X193423D01*
X193620Y482440D01*
Y481850D01*
X195194D02*
Y483031D01*
Y482244D02*
X195785Y482637D01*
X195194Y482244D02*
X195785Y481850D01*
X196965D02*
X196572D01*
X196375Y482047D01*
Y482440D01*
X196572Y482637D01*
X196965D01*
X197162Y482440D01*
Y482244D01*
X196375D01*
X198146Y481850D02*
X197752D01*
X197556Y482047D01*
Y482440D01*
X197752Y482637D01*
X198146D01*
X198343Y482440D01*
Y482244D01*
X197556D01*
X198736Y481456D02*
Y482637D01*
X199327D01*
X199523Y482440D01*
Y482047D01*
X199327Y481850D01*
X198736D01*
X199917Y482440D02*
X200704D01*
X201295Y481850D02*
X201688D01*
X201885Y482047D01*
Y482440D01*
X201688Y482637D01*
X201295D01*
X201098Y482440D01*
Y482047D01*
X201295Y481850D01*
X202278Y482637D02*
Y482047D01*
X202475Y481850D01*
X203066D01*
Y482637D01*
X203656Y482834D02*
Y482637D01*
X203459D01*
X203853D01*
X203656D01*
Y482047D01*
X203853Y481850D01*
X205821Y482637D02*
X206214D01*
X206411Y482440D01*
Y481850D01*
X205821D01*
X205624Y482047D01*
X205821Y482244D01*
X206411D01*
X206805Y482637D02*
Y481850D01*
Y482244D01*
X207001Y482440D01*
X207198Y482637D01*
X207395D01*
X208576Y481850D02*
X208182D01*
X207985Y482047D01*
Y482440D01*
X208182Y482637D01*
X208576D01*
X208772Y482440D01*
Y482244D01*
X207985D01*
X209363Y482637D02*
X209756D01*
X209953Y482440D01*
Y481850D01*
X209363D01*
X209166Y482047D01*
X209363Y482244D01*
X209953D01*
X211724Y482834D02*
Y482637D01*
X211527D01*
X211921D01*
X211724D01*
Y482047D01*
X211921Y481850D01*
X212708D02*
X213102D01*
X213299Y482047D01*
Y482440D01*
X213102Y482637D01*
X212708D01*
X212511Y482440D01*
Y482047D01*
X212708Y481850D01*
X214873D02*
X215463D01*
X215660Y482047D01*
X215463Y482244D01*
X215070D01*
X214873Y482440D01*
X215070Y482637D01*
X215660D01*
X216054Y481850D02*
X216447D01*
X216250D01*
Y483031D01*
X216054D01*
X217234Y481850D02*
X217628D01*
X217825Y482047D01*
Y482440D01*
X217628Y482637D01*
X217234D01*
X217038Y482440D01*
Y482047D01*
X217234Y481850D01*
X218415Y482834D02*
Y482637D01*
X218218D01*
X218612D01*
X218415D01*
Y482047D01*
X218612Y481850D01*
X187126Y477913D02*
Y479094D01*
X187520Y478700D01*
X187913Y479094D01*
Y477913D01*
X188897D02*
X188504D01*
X188307Y478110D01*
Y478503D01*
X188504Y478700D01*
X188897D01*
X189094Y478503D01*
Y478307D01*
X188307D01*
X190275Y478700D02*
X189684D01*
X189487Y478503D01*
Y478110D01*
X189684Y477913D01*
X190275D01*
X190668Y479094D02*
Y477913D01*
Y478503D01*
X190865Y478700D01*
X191259D01*
X191455Y478503D01*
Y477913D01*
X193030D02*
X193423D01*
X193226D01*
Y479094D01*
X193030Y478897D01*
X195194Y478503D02*
X195981D01*
X198343Y478897D02*
X198146Y479094D01*
X197752D01*
X197556Y478897D01*
Y478700D01*
X197752Y478503D01*
X198146D01*
X198343Y478307D01*
Y478110D01*
X198146Y477913D01*
X197752D01*
X197556Y478110D01*
X198736Y477913D02*
X199130D01*
X198933D01*
Y479094D01*
X198736D01*
X199917Y477913D02*
X200311D01*
X200507Y478110D01*
Y478503D01*
X200311Y478700D01*
X199917D01*
X199720Y478503D01*
Y478110D01*
X199917Y477913D01*
X201098Y478897D02*
Y478700D01*
X200901D01*
X201295D01*
X201098D01*
Y478110D01*
X201295Y477913D01*
X203853Y478700D02*
X203262D01*
X203066Y478503D01*
Y478110D01*
X203262Y477913D01*
X203853D01*
X204246Y478700D02*
Y478110D01*
X204443Y477913D01*
X205034D01*
Y478700D01*
X205624Y478897D02*
Y478700D01*
X205427D01*
X205821D01*
X205624D01*
Y478110D01*
X205821Y477913D01*
X206411Y478503D02*
X207198D01*
X207789Y477913D02*
X208182D01*
X208379Y478110D01*
Y478503D01*
X208182Y478700D01*
X207789D01*
X207592Y478503D01*
Y478110D01*
X207789Y477913D01*
X208772Y478700D02*
Y478110D01*
X208969Y477913D01*
X209560D01*
Y478700D01*
X210150Y478897D02*
Y478700D01*
X209953D01*
X210347D01*
X210150D01*
Y478110D01*
X210347Y477913D01*
X187126Y475945D02*
Y477125D01*
X187520Y476732D01*
X187913Y477125D01*
Y475945D01*
X188897D02*
X188504D01*
X188307Y476141D01*
Y476535D01*
X188504Y476732D01*
X188897D01*
X189094Y476535D01*
Y476338D01*
X188307D01*
X190275Y476732D02*
X189684D01*
X189487Y476535D01*
Y476141D01*
X189684Y475945D01*
X190275D01*
X190668Y477125D02*
Y475945D01*
Y476535D01*
X190865Y476732D01*
X191259D01*
X191455Y476535D01*
Y475945D01*
X193817D02*
X193030D01*
X193817Y476732D01*
Y476928D01*
X193620Y477125D01*
X193226D01*
X193030Y476928D01*
X195391Y476535D02*
X196178D01*
X198540Y476928D02*
X198343Y477125D01*
X197949D01*
X197752Y476928D01*
Y476141D01*
X197949Y475945D01*
X198343D01*
X198540Y476141D01*
X198933Y475945D02*
X199327D01*
X199130D01*
Y477125D01*
X198933D01*
X200507Y475945D02*
X200114D01*
X199917Y476141D01*
Y476535D01*
X200114Y476732D01*
X200507D01*
X200704Y476535D01*
Y476338D01*
X199917D01*
X201295Y476732D02*
X201688D01*
X201885Y476535D01*
Y475945D01*
X201295D01*
X201098Y476141D01*
X201295Y476338D01*
X201885D01*
X202278Y476732D02*
Y475945D01*
Y476338D01*
X202475Y476535D01*
X202672Y476732D01*
X202869D01*
X203656D02*
X204050D01*
X204246Y476535D01*
Y475945D01*
X203656D01*
X203459Y476141D01*
X203656Y476338D01*
X204246D01*
X204640Y475945D02*
Y476732D01*
X205230D01*
X205427Y476535D01*
Y475945D01*
X206608Y476732D02*
X206017D01*
X205821Y476535D01*
Y476141D01*
X206017Y475945D01*
X206608D01*
X207592D02*
X207198D01*
X207001Y476141D01*
Y476535D01*
X207198Y476732D01*
X207592D01*
X207789Y476535D01*
Y476338D01*
X207001D01*
X208379Y475748D02*
X208576Y475945D01*
Y476141D01*
X208379D01*
Y475945D01*
X208576D01*
X208379Y475748D01*
X208182Y475551D01*
X210544Y475945D02*
Y476732D01*
X210740D01*
X210937Y476535D01*
Y475945D01*
Y476535D01*
X211134Y476732D01*
X211331Y476535D01*
Y475945D01*
X211921D02*
X212315D01*
X212511Y476141D01*
Y476535D01*
X212315Y476732D01*
X211921D01*
X211724Y476535D01*
Y476141D01*
X211921Y475945D01*
X212905Y476732D02*
X213299Y475945D01*
X213692Y476732D01*
X214676Y475945D02*
X214282D01*
X214086Y476141D01*
Y476535D01*
X214282Y476732D01*
X214676D01*
X214873Y476535D01*
Y476338D01*
X214086D01*
X216644Y476928D02*
Y476732D01*
X216447D01*
X216841D01*
X216644D01*
Y476141D01*
X216841Y475945D01*
X217628D02*
X218021D01*
X218218Y476141D01*
Y476535D01*
X218021Y476732D01*
X217628D01*
X217431Y476535D01*
Y476141D01*
X217628Y475945D01*
X219793D02*
X220186D01*
X219989D01*
Y476732D01*
X219793D01*
X220777Y475945D02*
Y476732D01*
X221367D01*
X221564Y476535D01*
Y475945D01*
X222154Y476928D02*
Y476732D01*
X221957D01*
X222351D01*
X222154D01*
Y476141D01*
X222351Y475945D01*
X223532D02*
X223138D01*
X222941Y476141D01*
Y476535D01*
X223138Y476732D01*
X223532D01*
X223728Y476535D01*
Y476338D01*
X222941D01*
X224122Y476732D02*
Y475945D01*
Y476338D01*
X224319Y476535D01*
X224515Y476732D01*
X224712D01*
X225303Y475945D02*
Y476732D01*
X225893D01*
X226090Y476535D01*
Y475945D01*
X226680Y476732D02*
X227074D01*
X227270Y476535D01*
Y475945D01*
X226680D01*
X226483Y476141D01*
X226680Y476338D01*
X227270D01*
X227664Y475945D02*
X228058D01*
X227861D01*
Y477125D01*
X227664D01*
X229829Y475551D02*
Y476732D01*
X230419D01*
X230616Y476535D01*
Y476141D01*
X230419Y475945D01*
X229829D01*
X231009D02*
X231403D01*
X231206D01*
Y477125D01*
X231009D01*
X232190Y476732D02*
X232584D01*
X232781Y476535D01*
Y475945D01*
X232190D01*
X231993Y476141D01*
X232190Y476338D01*
X232781D01*
X233174Y475945D02*
Y476732D01*
X233764D01*
X233961Y476535D01*
Y475945D01*
X234945D02*
X234552D01*
X234355Y476141D01*
Y476535D01*
X234552Y476732D01*
X234945D01*
X235142Y476535D01*
Y476338D01*
X234355D01*
X236716Y475945D02*
X237110D01*
X236913D01*
Y476732D01*
X236716D01*
X237897Y475945D02*
Y476928D01*
Y476535D01*
X237700D01*
X238094D01*
X237897D01*
Y476928D01*
X238094Y477125D01*
X239865Y475551D02*
Y476732D01*
X240455D01*
X240652Y476535D01*
Y476141D01*
X240455Y475945D01*
X239865D01*
X241045Y476732D02*
Y475945D01*
Y476338D01*
X241242Y476535D01*
X241439Y476732D01*
X241636D01*
X242817Y475945D02*
X242423D01*
X242226Y476141D01*
Y476535D01*
X242423Y476732D01*
X242817D01*
X243013Y476535D01*
Y476338D01*
X242226D01*
X243407Y475945D02*
X243997D01*
X244194Y476141D01*
X243997Y476338D01*
X243604D01*
X243407Y476535D01*
X243604Y476732D01*
X244194D01*
X245178Y475945D02*
X244784D01*
X244588Y476141D01*
Y476535D01*
X244784Y476732D01*
X245178D01*
X245375Y476535D01*
Y476338D01*
X244588D01*
X245768Y475945D02*
Y476732D01*
X246359D01*
X246555Y476535D01*
Y475945D01*
X247146Y476928D02*
Y476732D01*
X246949D01*
X247343D01*
X247146D01*
Y476141D01*
X247343Y475945D01*
M02*
