%FSLAX25Y25*%
%MOIN*%
G70*
G01*
G75*
G04 Layer_Physical_Order=1*
G04 Layer_Color=255*
%ADD10C,0.01000*%
%ADD11C,0.05906*%
%ADD12R,0.05906X0.05906*%
%ADD13C,0.05512*%
%ADD14R,0.05906X0.05906*%
%ADD15R,0.07874X0.07874*%
%ADD16C,0.07874*%
%ADD17C,0.04724*%
%ADD18C,0.07284*%
%ADD19R,0.07284X0.07284*%
%ADD20C,0.04921*%
%ADD21R,0.04921X0.04921*%
%ADD22R,0.04921X0.04921*%
%ADD23O,0.07874X0.17716*%
%ADD24O,0.07874X0.15748*%
%ADD25O,0.15748X0.07874*%
%ADD26O,0.05906X0.17716*%
%ADD27O,0.15748X0.05906*%
%ADD28O,0.05906X0.15748*%
%ADD29C,0.03937*%
D10*
X454000Y441000D02*
X456000Y443000D01*
Y456000D01*
X392063Y362063D02*
Y380000D01*
X385000Y355000D02*
X392063Y362063D01*
X399937Y370063D02*
X415000Y355000D01*
X399937Y370063D02*
Y380000D01*
X424000Y354000D02*
Y394063D01*
X415000Y345000D02*
X424000Y354000D01*
Y434000D02*
X456000Y466000D01*
X424000Y401937D02*
Y434000D01*
X257500Y428500D02*
X266000Y420000D01*
X257500Y428500D02*
Y450500D01*
X262000Y455000D01*
X385000Y345000D02*
X389700Y340300D01*
Y329700D02*
Y340300D01*
X385000Y325000D02*
X389700Y329700D01*
X215300Y363291D02*
X220000Y358591D01*
X215300Y363291D02*
Y385300D01*
X220000Y390000D01*
X332000Y337000D02*
Y365000D01*
X258063Y372654D02*
Y390000D01*
X246000Y360591D02*
X258063Y372654D01*
X268000Y349409D02*
Y358591D01*
Y349409D02*
X300000Y317409D01*
X215528Y430472D02*
X226000Y420000D01*
X215528Y430472D02*
Y456000D01*
X236000Y396000D02*
Y420000D01*
X220000Y380000D02*
X236000Y396000D01*
X454000Y389000D02*
Y411000D01*
X380300Y339700D02*
X385000Y335000D01*
X380300Y339700D02*
Y419300D01*
X397000Y436000D01*
D11*
X415000Y325000D02*
D03*
Y335000D02*
D03*
Y345000D02*
D03*
Y355000D02*
D03*
X385000Y325000D02*
D03*
Y335000D02*
D03*
Y345000D02*
D03*
X226000Y420000D02*
D03*
X236000D02*
D03*
X246000D02*
D03*
X256000D02*
D03*
X266000D02*
D03*
X456000Y456000D02*
D03*
X220000Y390000D02*
D03*
D12*
X385000Y355000D02*
D03*
X216000Y420000D02*
D03*
D13*
X290000Y401000D02*
D03*
Y371000D02*
D03*
X397000Y436000D02*
D03*
X367000D02*
D03*
X395000Y456000D02*
D03*
X365000D02*
D03*
X454000Y411000D02*
D03*
Y441000D02*
D03*
Y359000D02*
D03*
Y389000D02*
D03*
D14*
X456000Y466000D02*
D03*
X220000Y380000D02*
D03*
D15*
X268000Y358591D02*
D03*
X300000D02*
D03*
X220000D02*
D03*
X246000Y319409D02*
D03*
D16*
X268000Y317409D02*
D03*
X300000D02*
D03*
X220000D02*
D03*
X246000Y360591D02*
D03*
D17*
X262000Y445000D02*
D03*
Y455000D02*
D03*
X332000Y375000D02*
D03*
Y365000D02*
D03*
Y337000D02*
D03*
Y327000D02*
D03*
D18*
X326764Y456000D02*
D03*
D19*
X297236D02*
D03*
D20*
X258063Y390000D02*
D03*
X424000Y401937D02*
D03*
X399937Y380000D02*
D03*
X414063Y454000D02*
D03*
D21*
X265937Y390000D02*
D03*
X392063Y380000D02*
D03*
X421937Y454000D02*
D03*
D22*
X424000Y394063D02*
D03*
D23*
X239937Y456000D02*
D03*
D24*
X215528D02*
D03*
D25*
X227339Y436315D02*
D03*
D26*
X239937Y456000D02*
D03*
D27*
X227339Y436315D02*
D03*
D28*
X215528Y456000D02*
D03*
D29*
X327000Y396500D02*
D03*
M02*
