%FSLAX25Y25*%
%MOIN*%
G70*
G01*
G75*
G04 Layer_Color=65535*
%ADD10C,0.01000*%
%ADD11C,0.05906*%
%ADD12R,0.05906X0.05906*%
%ADD13C,0.05512*%
%ADD14R,0.05906X0.05906*%
%ADD15R,0.07874X0.07874*%
%ADD16C,0.07874*%
%ADD17C,0.04724*%
%ADD18C,0.07284*%
%ADD19R,0.07284X0.07284*%
%ADD20C,0.04921*%
%ADD21R,0.04921X0.04921*%
%ADD22R,0.04921X0.04921*%
%ADD23O,0.07874X0.17716*%
%ADD24O,0.07874X0.15748*%
%ADD25O,0.15748X0.07874*%
%ADD26O,0.05906X0.17716*%
%ADD27O,0.15748X0.05906*%
%ADD28O,0.05906X0.15748*%
%ADD29C,0.03937*%
%ADD30C,0.02362*%
%ADD31C,0.00984*%
%ADD32C,0.00787*%
%ADD33C,0.00591*%
%ADD34R,0.11024X0.03150*%
G36*
X440000Y473000D02*
X352000D01*
Y489500D01*
X440000D01*
Y473000D01*
D02*
G37*
%LPC*%
G36*
X376878Y487500D02*
X376195D01*
Y480970D01*
X376878D01*
Y487500D01*
D02*
G37*
G36*
X375853D02*
X375512D01*
Y480970D01*
X375853D01*
Y487500D01*
D02*
G37*
G36*
X374829D02*
X374488D01*
Y480970D01*
X374829D01*
Y487500D01*
D02*
G37*
G36*
X379268D02*
X378585D01*
Y480970D01*
X379268D01*
Y487500D01*
D02*
G37*
G36*
X378244D02*
X377902D01*
Y480970D01*
X378244D01*
Y487500D01*
D02*
G37*
G36*
X377561D02*
X377219D01*
Y480970D01*
X377561D01*
Y487500D01*
D02*
G37*
G36*
X371414D02*
X370731D01*
Y480970D01*
X371414D01*
Y487500D01*
D02*
G37*
G36*
X370390D02*
X370049D01*
Y480970D01*
X370390D01*
Y487500D01*
D02*
G37*
G36*
X369366D02*
X369024D01*
Y480970D01*
X369366D01*
Y487500D01*
D02*
G37*
G36*
X373805D02*
X373463D01*
Y480970D01*
X373805D01*
Y487500D01*
D02*
G37*
G36*
X373122D02*
X372780D01*
Y480970D01*
X373122D01*
Y487500D01*
D02*
G37*
G36*
X372097D02*
X371756D01*
Y480970D01*
X372097D01*
Y487500D01*
D02*
G37*
G36*
X380292D02*
X379951D01*
Y480970D01*
X380292D01*
Y487500D01*
D02*
G37*
G36*
X388146D02*
X387463D01*
Y480970D01*
X388146D01*
Y487500D01*
D02*
G37*
G36*
X387122D02*
X386439D01*
Y480970D01*
X387122D01*
Y487500D01*
D02*
G37*
G36*
X386097D02*
X385756D01*
Y480970D01*
X386097D01*
Y487500D01*
D02*
G37*
G36*
X390878D02*
X390536D01*
Y480970D01*
X390878D01*
Y487500D01*
D02*
G37*
G36*
X389853D02*
X389512D01*
Y480970D01*
X389853D01*
Y487500D01*
D02*
G37*
G36*
X389170D02*
X388829D01*
Y480970D01*
X389170D01*
Y487500D01*
D02*
G37*
G36*
X382683D02*
X382341D01*
Y480970D01*
X382683D01*
Y487500D01*
D02*
G37*
G36*
X382000D02*
X381658D01*
Y480970D01*
X382000D01*
Y487500D01*
D02*
G37*
G36*
X380975D02*
X380634D01*
Y480970D01*
X380975D01*
Y487500D01*
D02*
G37*
G36*
X385414D02*
X385073D01*
Y480970D01*
X385414D01*
Y487500D01*
D02*
G37*
G36*
X384731D02*
X384390D01*
Y480970D01*
X384731D01*
Y487500D01*
D02*
G37*
G36*
X383707D02*
X383366D01*
Y480970D01*
X383707D01*
Y487500D01*
D02*
G37*
G36*
X368683D02*
X368341D01*
Y480970D01*
X368683D01*
Y487500D01*
D02*
G37*
G36*
X375349Y477845D02*
X375309D01*
X375249Y477840D01*
X375194Y477830D01*
X375139Y477815D01*
X375094Y477800D01*
X375059Y477780D01*
X375029Y477765D01*
X375009Y477755D01*
X375004Y477750D01*
X374954Y477705D01*
X374899Y477650D01*
X374849Y477585D01*
X374804Y477515D01*
X374769Y477455D01*
X374734Y477405D01*
X374724Y477385D01*
X374714Y477370D01*
X374709Y477360D01*
Y477785D01*
X374284D01*
Y475000D01*
X374754D01*
Y476450D01*
X374759Y476560D01*
X374764Y476665D01*
X374779Y476755D01*
X374794Y476840D01*
X374804Y476905D01*
X374819Y476955D01*
X374824Y476975D01*
Y476990D01*
X374829Y476995D01*
Y477000D01*
X374854Y477060D01*
X374879Y477110D01*
X374909Y477155D01*
X374939Y477190D01*
X374964Y477220D01*
X374984Y477245D01*
X374999Y477255D01*
X375004Y477260D01*
X375054Y477290D01*
X375099Y477315D01*
X375149Y477330D01*
X375189Y477345D01*
X375229Y477350D01*
X375259Y477355D01*
X375284D01*
X375349Y477350D01*
X375414Y477340D01*
X375474Y477325D01*
X375524Y477305D01*
X375569Y477285D01*
X375604Y477270D01*
X375624Y477260D01*
X375634Y477255D01*
X375799Y477690D01*
X375704Y477740D01*
X375619Y477780D01*
X375534Y477805D01*
X375459Y477825D01*
X375399Y477835D01*
X375349Y477845D01*
D02*
G37*
G36*
X359744Y478845D02*
X359054D01*
X357144Y476940D01*
Y478845D01*
X356634D01*
Y475000D01*
X357144D01*
Y476330D01*
X357769Y476935D01*
X359139Y475000D01*
X359814D01*
X358129Y477280D01*
X359744Y478845D01*
D02*
G37*
G36*
X426522Y477785D02*
X426052D01*
X425457Y476160D01*
X425417Y476045D01*
X425377Y475930D01*
X425342Y475825D01*
X425312Y475730D01*
X425292Y475650D01*
X425282Y475615D01*
X425272Y475585D01*
X425267Y475560D01*
X425262Y475545D01*
X425257Y475535D01*
Y475530D01*
X425222Y475655D01*
X425187Y475775D01*
X425152Y475885D01*
X425122Y475980D01*
X425097Y476060D01*
X425087Y476095D01*
X425077Y476120D01*
X425067Y476145D01*
X425062Y476160D01*
X425057Y476170D01*
Y476175D01*
X424472Y477785D01*
X423972D01*
X425032Y475000D01*
X425012Y474950D01*
X424997Y474915D01*
X424992Y474890D01*
X424987Y474885D01*
X424967Y474835D01*
X424952Y474790D01*
X424922Y474710D01*
X424897Y474650D01*
X424877Y474600D01*
X424862Y474565D01*
X424852Y474545D01*
X424842Y474535D01*
Y474530D01*
X424792Y474465D01*
X424742Y474420D01*
X424722Y474405D01*
X424702Y474395D01*
X424692Y474385D01*
X424687D01*
X424652Y474365D01*
X424612Y474355D01*
X424527Y474335D01*
X424492D01*
X424462Y474330D01*
X424437D01*
X424347Y474335D01*
X424302Y474345D01*
X424262Y474355D01*
X424227Y474360D01*
X424197Y474370D01*
X424177Y474375D01*
X424172D01*
X424222Y473935D01*
X424282Y473915D01*
X424337Y473900D01*
X424392Y473890D01*
X424437Y473885D01*
X424472Y473880D01*
X424502Y473875D01*
X424527D01*
X424607Y473880D01*
X424682Y473890D01*
X424747Y473910D01*
X424802Y473930D01*
X424852Y473950D01*
X424882Y473970D01*
X424907Y473980D01*
X424912Y473985D01*
X424972Y474030D01*
X425027Y474085D01*
X425077Y474140D01*
X425117Y474195D01*
X425152Y474245D01*
X425182Y474290D01*
X425197Y474315D01*
X425202Y474325D01*
X425222Y474360D01*
X425242Y474400D01*
X425282Y474495D01*
X425327Y474600D01*
X425372Y474705D01*
X425407Y474800D01*
X425427Y474845D01*
X425437Y474880D01*
X425452Y474910D01*
X425462Y474935D01*
X425467Y474950D01*
Y474955D01*
X426522Y477785D01*
D02*
G37*
G36*
X356390Y487500D02*
X355707D01*
Y480970D01*
X356390D01*
Y487500D01*
D02*
G37*
G36*
X355366D02*
X355024D01*
Y480970D01*
X355366D01*
Y487500D01*
D02*
G37*
G36*
X354342D02*
X354000D01*
Y480970D01*
X354342D01*
Y487500D01*
D02*
G37*
G36*
X366557Y477845D02*
X366467D01*
X366337Y477840D01*
X366217Y477830D01*
X366107Y477815D01*
X366017Y477795D01*
X365937Y477775D01*
X365907Y477770D01*
X365882Y477760D01*
X365862Y477755D01*
X365847Y477750D01*
X365837Y477745D01*
X365832D01*
X365737Y477705D01*
X365652Y477660D01*
X365582Y477615D01*
X365522Y477570D01*
X365477Y477525D01*
X365442Y477495D01*
X365422Y477475D01*
X365417Y477465D01*
X365367Y477395D01*
X365322Y477315D01*
X365287Y477235D01*
X365262Y477160D01*
X365237Y477095D01*
X365222Y477040D01*
X365217Y477020D01*
Y477005D01*
X365212Y476995D01*
Y476990D01*
X365672Y476925D01*
X365702Y477025D01*
X365742Y477115D01*
X365777Y477185D01*
X365817Y477240D01*
X365847Y477285D01*
X365877Y477315D01*
X365897Y477330D01*
X365902Y477335D01*
X365967Y477375D01*
X366047Y477405D01*
X366127Y477425D01*
X366212Y477440D01*
X366282Y477450D01*
X366342Y477455D01*
X366397D01*
X366522Y477450D01*
X366632Y477430D01*
X366722Y477405D01*
X366802Y477375D01*
X366862Y477345D01*
X366902Y477320D01*
X366927Y477300D01*
X366937Y477295D01*
X366982Y477245D01*
X367017Y477180D01*
X367037Y477115D01*
X367057Y477045D01*
X367067Y476985D01*
X367072Y476930D01*
Y476915D01*
Y476900D01*
Y476890D01*
Y476885D01*
Y476875D01*
Y476855D01*
Y476815D01*
X367067Y476795D01*
Y476780D01*
Y476770D01*
Y476765D01*
X367012Y476750D01*
X366952Y476730D01*
X366822Y476700D01*
X366682Y476670D01*
X366547Y476645D01*
X366482Y476635D01*
X366422Y476625D01*
X366367Y476620D01*
X366322Y476615D01*
X366282Y476605D01*
X366252D01*
X366232Y476600D01*
X366227D01*
X366127Y476585D01*
X366042Y476575D01*
X365972Y476565D01*
X365912Y476550D01*
X365867Y476545D01*
X365832Y476535D01*
X365812Y476530D01*
X365807D01*
X365737Y476510D01*
X365672Y476485D01*
X365617Y476460D01*
X365567Y476435D01*
X365527Y476410D01*
X365492Y476390D01*
X365472Y476380D01*
X365467Y476375D01*
X365412Y476335D01*
X365367Y476290D01*
X365322Y476245D01*
X365287Y476205D01*
X365262Y476165D01*
X365237Y476135D01*
X365227Y476115D01*
X365222Y476105D01*
X365192Y476040D01*
X365172Y475975D01*
X365152Y475910D01*
X365142Y475855D01*
X365137Y475805D01*
X365132Y475765D01*
Y475740D01*
Y475730D01*
X365137Y475665D01*
X365142Y475605D01*
X365172Y475495D01*
X365212Y475400D01*
X365257Y475315D01*
X365302Y475250D01*
X365337Y475200D01*
X365367Y475170D01*
X365372Y475165D01*
X365377Y475160D01*
X365427Y475120D01*
X365477Y475090D01*
X365592Y475035D01*
X365707Y474995D01*
X365822Y474970D01*
X365922Y474950D01*
X365967Y474945D01*
X366007D01*
X366037Y474940D01*
X366082D01*
X366182Y474945D01*
X366277Y474955D01*
X366367Y474970D01*
X366442Y474985D01*
X366507Y475000D01*
X366557Y475015D01*
X366572Y475020D01*
X366587Y475025D01*
X366592Y475030D01*
X366597D01*
X366687Y475070D01*
X366782Y475120D01*
X366867Y475175D01*
X366942Y475225D01*
X367012Y475275D01*
X367062Y475315D01*
X367082Y475330D01*
X367097Y475340D01*
X367102Y475350D01*
X367107D01*
X367117Y475275D01*
X367132Y475210D01*
X367142Y475150D01*
X367162Y475100D01*
X367172Y475055D01*
X367187Y475025D01*
X367192Y475005D01*
X367197Y475000D01*
X367692D01*
X367662Y475060D01*
X367637Y475120D01*
X367617Y475175D01*
X367597Y475230D01*
X367587Y475270D01*
X367577Y475305D01*
X367572Y475325D01*
Y475335D01*
X367567Y475375D01*
X367562Y475420D01*
Y475475D01*
X367557Y475540D01*
X367552Y475675D01*
Y475815D01*
X367547Y475885D01*
Y475950D01*
Y476010D01*
Y476060D01*
Y476105D01*
Y476135D01*
Y476160D01*
Y476165D01*
Y476795D01*
Y476905D01*
X367542Y476995D01*
X367537Y477070D01*
Y477130D01*
X367532Y477175D01*
X367527Y477205D01*
X367522Y477225D01*
Y477230D01*
X367502Y477300D01*
X367482Y477360D01*
X367457Y477415D01*
X367432Y477460D01*
X367407Y477495D01*
X367387Y477525D01*
X367377Y477540D01*
X367372Y477545D01*
X367327Y477590D01*
X367277Y477635D01*
X367222Y477670D01*
X367167Y477700D01*
X367117Y477725D01*
X367077Y477745D01*
X367052Y477755D01*
X367047Y477760D01*
X367042D01*
X366952Y477790D01*
X366862Y477810D01*
X366762Y477825D01*
X366672Y477835D01*
X366592Y477840D01*
X366557Y477845D01*
D02*
G37*
G36*
X383389Y478755D02*
X382919Y478470D01*
Y477785D01*
X382569D01*
Y477420D01*
X382919D01*
Y475815D01*
Y475740D01*
X382924Y475670D01*
Y475605D01*
X382929Y475550D01*
X382934Y475495D01*
X382939Y475450D01*
X382944Y475410D01*
X382949Y475375D01*
X382959Y475320D01*
X382964Y475285D01*
X382974Y475260D01*
Y475255D01*
X382999Y475210D01*
X383029Y475170D01*
X383064Y475130D01*
X383099Y475100D01*
X383129Y475075D01*
X383149Y475060D01*
X383169Y475050D01*
X383174Y475045D01*
X383229Y475020D01*
X383294Y475000D01*
X383359Y474985D01*
X383424Y474975D01*
X383479Y474970D01*
X383529Y474965D01*
X383569D01*
X383694Y474970D01*
X383754Y474980D01*
X383809Y474985D01*
X383859Y474995D01*
X383894Y475000D01*
X383919Y475005D01*
X383929D01*
X383864Y475420D01*
X383819Y475415D01*
X383779Y475410D01*
X383739D01*
X383709Y475405D01*
X383654D01*
X383584Y475410D01*
X383534Y475420D01*
X383514Y475425D01*
X383499Y475430D01*
X383494Y475435D01*
X383489D01*
X383454Y475465D01*
X383429Y475495D01*
X383414Y475515D01*
X383409Y475525D01*
X383404Y475555D01*
X383399Y475590D01*
X383394Y475635D01*
Y475680D01*
X383389Y475720D01*
Y475755D01*
Y475780D01*
Y475790D01*
Y477420D01*
X383864D01*
Y477785D01*
X383389D01*
Y478755D01*
D02*
G37*
G36*
X416872Y477845D02*
X416817D01*
X416722Y477840D01*
X416632Y477830D01*
X416547Y477815D01*
X416462Y477795D01*
X416387Y477775D01*
X416312Y477745D01*
X416247Y477720D01*
X416187Y477690D01*
X416132Y477660D01*
X416082Y477635D01*
X416042Y477605D01*
X416007Y477585D01*
X415977Y477565D01*
X415957Y477550D01*
X415947Y477540D01*
X415942Y477535D01*
X415867Y477460D01*
X415802Y477380D01*
X415747Y477290D01*
X415697Y477200D01*
X415657Y477105D01*
X415622Y477010D01*
X415592Y476915D01*
X415572Y476820D01*
X415552Y476735D01*
X415542Y476655D01*
X415532Y476580D01*
X415522Y476515D01*
Y476465D01*
X415517Y476425D01*
Y476400D01*
Y476390D01*
X415522Y476260D01*
X415532Y476140D01*
X415552Y476030D01*
X415572Y475925D01*
X415602Y475825D01*
X415632Y475740D01*
X415662Y475660D01*
X415697Y475585D01*
X415732Y475520D01*
X415762Y475465D01*
X415792Y475420D01*
X415822Y475380D01*
X415842Y475350D01*
X415862Y475330D01*
X415872Y475315D01*
X415877Y475310D01*
X415947Y475245D01*
X416022Y475190D01*
X416097Y475140D01*
X416177Y475095D01*
X416257Y475060D01*
X416332Y475030D01*
X416407Y475005D01*
X416482Y474985D01*
X416552Y474970D01*
X416617Y474960D01*
X416672Y474950D01*
X416722Y474945D01*
X416762D01*
X416792Y474940D01*
X416817D01*
X416952Y474945D01*
X417077Y474965D01*
X417192Y474995D01*
X417287Y475025D01*
X417372Y475055D01*
X417407Y475070D01*
X417432Y475085D01*
X417457Y475095D01*
X417472Y475105D01*
X417482Y475110D01*
X417487D01*
X417597Y475180D01*
X417692Y475255D01*
X417772Y475335D01*
X417837Y475410D01*
X417892Y475480D01*
X417927Y475535D01*
X417942Y475555D01*
X417952Y475570D01*
X417957Y475580D01*
Y475585D01*
X417987Y475645D01*
X418012Y475710D01*
X418052Y475850D01*
X418082Y475990D01*
X418102Y476125D01*
X418107Y476185D01*
X418112Y476245D01*
X418117Y476295D01*
X418122Y476340D01*
Y476380D01*
Y476405D01*
Y476425D01*
Y476430D01*
X418117Y476550D01*
X418107Y476665D01*
X418087Y476770D01*
X418067Y476870D01*
X418037Y476965D01*
X418007Y477050D01*
X417972Y477125D01*
X417942Y477195D01*
X417907Y477255D01*
X417872Y477310D01*
X417842Y477360D01*
X417812Y477395D01*
X417792Y477425D01*
X417772Y477450D01*
X417762Y477460D01*
X417757Y477465D01*
X417687Y477530D01*
X417612Y477590D01*
X417537Y477640D01*
X417457Y477685D01*
X417377Y477720D01*
X417297Y477750D01*
X417222Y477780D01*
X417152Y477800D01*
X417082Y477815D01*
X417017Y477825D01*
X416962Y477835D01*
X416912Y477840D01*
X416872Y477845D01*
D02*
G37*
G36*
X392922Y477785D02*
X392452D01*
X391857Y476160D01*
X391817Y476045D01*
X391777Y475930D01*
X391742Y475825D01*
X391712Y475730D01*
X391692Y475650D01*
X391682Y475615D01*
X391672Y475585D01*
X391667Y475560D01*
X391662Y475545D01*
X391657Y475535D01*
Y475530D01*
X391622Y475655D01*
X391587Y475775D01*
X391552Y475885D01*
X391522Y475980D01*
X391497Y476060D01*
X391487Y476095D01*
X391477Y476120D01*
X391467Y476145D01*
X391462Y476160D01*
X391457Y476170D01*
Y476175D01*
X390872Y477785D01*
X390372D01*
X391432Y475000D01*
X391412Y474950D01*
X391397Y474915D01*
X391392Y474890D01*
X391387Y474885D01*
X391367Y474835D01*
X391352Y474790D01*
X391322Y474710D01*
X391297Y474650D01*
X391277Y474600D01*
X391262Y474565D01*
X391252Y474545D01*
X391242Y474535D01*
Y474530D01*
X391192Y474465D01*
X391142Y474420D01*
X391122Y474405D01*
X391102Y474395D01*
X391092Y474385D01*
X391087D01*
X391052Y474365D01*
X391012Y474355D01*
X390927Y474335D01*
X390892D01*
X390862Y474330D01*
X390837D01*
X390747Y474335D01*
X390702Y474345D01*
X390662Y474355D01*
X390627Y474360D01*
X390597Y474370D01*
X390577Y474375D01*
X390572D01*
X390622Y473935D01*
X390682Y473915D01*
X390737Y473900D01*
X390792Y473890D01*
X390837Y473885D01*
X390872Y473880D01*
X390902Y473875D01*
X390927D01*
X391007Y473880D01*
X391082Y473890D01*
X391147Y473910D01*
X391202Y473930D01*
X391252Y473950D01*
X391282Y473970D01*
X391307Y473980D01*
X391312Y473985D01*
X391372Y474030D01*
X391427Y474085D01*
X391477Y474140D01*
X391517Y474195D01*
X391552Y474245D01*
X391582Y474290D01*
X391597Y474315D01*
X391602Y474325D01*
X391622Y474360D01*
X391642Y474400D01*
X391682Y474495D01*
X391727Y474600D01*
X391772Y474705D01*
X391807Y474800D01*
X391827Y474845D01*
X391837Y474880D01*
X391852Y474910D01*
X391862Y474935D01*
X391867Y474950D01*
Y474955D01*
X392922Y477785D01*
D02*
G37*
G36*
X434767D02*
X432492D01*
Y477395D01*
X433717D01*
X433807Y477400D01*
X433897D01*
X433977Y477405D01*
X434052D01*
X434107Y477410D01*
X434157D01*
X432387Y475380D01*
Y475000D01*
X434852D01*
Y475405D01*
X433562D01*
X433352Y475400D01*
X433252Y475395D01*
X433162Y475390D01*
X433082Y475385D01*
X433047Y475380D01*
X432997D01*
X432982Y475375D01*
X432967D01*
X433262Y475700D01*
X434767Y477465D01*
Y477785D01*
D02*
G37*
G36*
X408549Y478845D02*
X407034D01*
Y475000D01*
X408494D01*
X408629Y475005D01*
X408749Y475010D01*
X408854Y475020D01*
X408944Y475030D01*
X409014Y475040D01*
X409044Y475045D01*
X409069Y475050D01*
X409089Y475055D01*
X409104Y475060D01*
X409114D01*
X409204Y475085D01*
X409289Y475115D01*
X409359Y475150D01*
X409419Y475180D01*
X409469Y475205D01*
X409504Y475230D01*
X409529Y475245D01*
X409534Y475250D01*
X409594Y475305D01*
X409649Y475360D01*
X409699Y475420D01*
X409739Y475480D01*
X409774Y475530D01*
X409799Y475570D01*
X409814Y475600D01*
X409819Y475610D01*
X409859Y475700D01*
X409884Y475785D01*
X409904Y475870D01*
X409919Y475945D01*
X409929Y476015D01*
X409934Y476065D01*
Y476085D01*
Y476100D01*
Y476105D01*
Y476110D01*
X409924Y476230D01*
X409904Y476340D01*
X409874Y476440D01*
X409839Y476525D01*
X409804Y476595D01*
X409774Y476645D01*
X409764Y476665D01*
X409754Y476680D01*
X409744Y476685D01*
Y476690D01*
X409669Y476775D01*
X409584Y476850D01*
X409494Y476910D01*
X409409Y476960D01*
X409329Y477000D01*
X409294Y477015D01*
X409269Y477025D01*
X409244Y477035D01*
X409224Y477040D01*
X409214Y477045D01*
X409209D01*
X409304Y477095D01*
X409384Y477155D01*
X409454Y477210D01*
X409514Y477265D01*
X409559Y477315D01*
X409589Y477355D01*
X409609Y477380D01*
X409614Y477390D01*
X409659Y477475D01*
X409694Y477555D01*
X409714Y477635D01*
X409734Y477710D01*
X409744Y477770D01*
X409749Y477820D01*
Y477835D01*
Y477850D01*
Y477855D01*
Y477860D01*
X409744Y477960D01*
X409724Y478050D01*
X409699Y478135D01*
X409674Y478210D01*
X409644Y478275D01*
X409619Y478325D01*
X409599Y478355D01*
X409594Y478360D01*
Y478365D01*
X409534Y478450D01*
X409464Y478525D01*
X409399Y478585D01*
X409329Y478635D01*
X409269Y478675D01*
X409224Y478705D01*
X409204Y478715D01*
X409189Y478720D01*
X409184Y478725D01*
X409179D01*
X409074Y478765D01*
X408959Y478795D01*
X408839Y478815D01*
X408729Y478830D01*
X408629Y478840D01*
X408584D01*
X408549Y478845D01*
D02*
G37*
G36*
X357415Y487500D02*
X356732D01*
Y480970D01*
X357415D01*
Y487500D01*
D02*
G37*
G36*
X364927D02*
X364585D01*
Y480970D01*
X364927D01*
Y487500D01*
D02*
G37*
G36*
X364244D02*
X363902D01*
Y480970D01*
X364244D01*
Y487500D01*
D02*
G37*
G36*
X363219D02*
X362878D01*
Y480970D01*
X363219D01*
Y487500D01*
D02*
G37*
G36*
X368000D02*
X367317D01*
Y480970D01*
X368000D01*
Y487500D01*
D02*
G37*
G36*
X366975D02*
X366634D01*
Y480970D01*
X366975D01*
Y487500D01*
D02*
G37*
G36*
X365951D02*
X365610D01*
Y480970D01*
X365951D01*
Y487500D01*
D02*
G37*
G36*
X359805D02*
X359463D01*
Y480970D01*
X359805D01*
Y487500D01*
D02*
G37*
G36*
X359122D02*
X358439D01*
Y480970D01*
X359122D01*
Y487500D01*
D02*
G37*
G36*
X358098D02*
X357756D01*
Y480970D01*
X358098D01*
Y487500D01*
D02*
G37*
G36*
X362537D02*
X361854D01*
Y480970D01*
X362537D01*
Y487500D01*
D02*
G37*
G36*
X361171D02*
X360829D01*
Y480970D01*
X361171D01*
Y487500D01*
D02*
G37*
G36*
X360488D02*
X360146D01*
Y480970D01*
X360488D01*
Y487500D01*
D02*
G37*
G36*
X391561D02*
X391219D01*
Y480970D01*
X391561D01*
Y487500D01*
D02*
G37*
G36*
X423999D02*
X423658D01*
Y480970D01*
X423999D01*
Y487500D01*
D02*
G37*
G36*
X423316D02*
X422634D01*
Y480970D01*
X423316D01*
Y487500D01*
D02*
G37*
G36*
X422292D02*
X421950D01*
Y480970D01*
X422292D01*
Y487500D01*
D02*
G37*
G36*
X426390D02*
X426048D01*
Y480970D01*
X426390D01*
Y487500D01*
D02*
G37*
G36*
X425365D02*
X425024D01*
Y480970D01*
X425365D01*
Y487500D01*
D02*
G37*
G36*
X424682D02*
X424341D01*
Y480970D01*
X424682D01*
Y487500D01*
D02*
G37*
G36*
X421268D02*
X420585D01*
Y480970D01*
X421268D01*
Y487500D01*
D02*
G37*
G36*
X417512D02*
X417170D01*
Y480970D01*
X417512D01*
Y487500D01*
D02*
G37*
G36*
X416487D02*
X416146D01*
Y480970D01*
X416487D01*
Y487500D01*
D02*
G37*
G36*
X415804D02*
X415463D01*
Y480970D01*
X415804D01*
Y487500D01*
D02*
G37*
G36*
X420243D02*
X419902D01*
Y480970D01*
X420243D01*
Y487500D01*
D02*
G37*
G36*
X419219D02*
X418877D01*
Y480970D01*
X419219D01*
Y487500D01*
D02*
G37*
G36*
X418194D02*
X417853D01*
Y480970D01*
X418194D01*
Y487500D01*
D02*
G37*
G36*
X435267D02*
X434926D01*
Y480970D01*
X435267D01*
Y487500D01*
D02*
G37*
G36*
X434243D02*
X433902D01*
Y480970D01*
X434243D01*
Y487500D01*
D02*
G37*
G36*
X433560D02*
X433219D01*
Y480970D01*
X433560D01*
Y487500D01*
D02*
G37*
G36*
X437999D02*
X437658D01*
Y480970D01*
X437999D01*
Y487500D01*
D02*
G37*
G36*
X437316D02*
X436633D01*
Y480970D01*
X437316D01*
Y487500D01*
D02*
G37*
G36*
X436292D02*
X435609D01*
Y480970D01*
X436292D01*
Y487500D01*
D02*
G37*
G36*
X432877D02*
X432536D01*
Y480970D01*
X432877D01*
Y487500D01*
D02*
G37*
G36*
X429121D02*
X428780D01*
Y480970D01*
X429121D01*
Y487500D01*
D02*
G37*
G36*
X428097D02*
X427755D01*
Y480970D01*
X428097D01*
Y487500D01*
D02*
G37*
G36*
X427072D02*
X426731D01*
Y480970D01*
X427072D01*
Y487500D01*
D02*
G37*
G36*
X432194D02*
X431511D01*
Y480970D01*
X432194D01*
Y487500D01*
D02*
G37*
G36*
X431170D02*
X430487D01*
Y480970D01*
X431170D01*
Y487500D01*
D02*
G37*
G36*
X429804D02*
X429463D01*
Y480970D01*
X429804D01*
Y487500D01*
D02*
G37*
G36*
X400780D02*
X400439D01*
Y480970D01*
X400780D01*
Y487500D01*
D02*
G37*
G36*
X400097D02*
X399414D01*
Y480970D01*
X400097D01*
Y487500D01*
D02*
G37*
G36*
X398731D02*
X398390D01*
Y480970D01*
X398731D01*
Y487500D01*
D02*
G37*
G36*
X403170D02*
X402829D01*
Y480970D01*
X403170D01*
Y487500D01*
D02*
G37*
G36*
X402487D02*
X402146D01*
Y480970D01*
X402487D01*
Y487500D01*
D02*
G37*
G36*
X401804D02*
X401122D01*
Y480970D01*
X401804D01*
Y487500D01*
D02*
G37*
G36*
X398048D02*
X397707D01*
Y480970D01*
X398048D01*
Y487500D01*
D02*
G37*
G36*
X394634D02*
X393951D01*
Y480970D01*
X394634D01*
Y487500D01*
D02*
G37*
G36*
X393609D02*
X393268D01*
Y480970D01*
X393609D01*
Y487500D01*
D02*
G37*
G36*
X392585D02*
X392244D01*
Y480970D01*
X392585D01*
Y487500D01*
D02*
G37*
G36*
X397365D02*
X397024D01*
Y480970D01*
X397365D01*
Y487500D01*
D02*
G37*
G36*
X396683D02*
X396000D01*
Y480970D01*
X396683D01*
Y487500D01*
D02*
G37*
G36*
X395658D02*
X395317D01*
Y480970D01*
X395658D01*
Y487500D01*
D02*
G37*
G36*
X413073D02*
X412731D01*
Y480970D01*
X413073D01*
Y487500D01*
D02*
G37*
G36*
X414097D02*
X413414D01*
Y480970D01*
X414097D01*
Y487500D01*
D02*
G37*
G36*
X409316D02*
X408975D01*
Y480970D01*
X409316D01*
Y487500D01*
D02*
G37*
G36*
X411365D02*
X411024D01*
Y480970D01*
X411365D01*
Y487500D01*
D02*
G37*
G36*
X410341D02*
X409999D01*
Y480970D01*
X410341D01*
Y487500D01*
D02*
G37*
G36*
X412390D02*
X411707D01*
Y480970D01*
X412390D01*
Y487500D01*
D02*
G37*
G36*
X408634D02*
X408292D01*
Y480970D01*
X408634D01*
Y487500D01*
D02*
G37*
G36*
X405902D02*
X405560D01*
Y480970D01*
X405902D01*
Y487500D01*
D02*
G37*
G36*
X404878D02*
X404536D01*
Y480970D01*
X404878D01*
Y487500D01*
D02*
G37*
G36*
X404195D02*
X403512D01*
Y480970D01*
X404195D01*
Y487500D01*
D02*
G37*
G36*
X407609D02*
X407268D01*
Y480970D01*
X407609D01*
Y487500D01*
D02*
G37*
G36*
X414780D02*
X414438D01*
Y480970D01*
X414780D01*
Y487500D01*
D02*
G37*
G36*
X406926D02*
X406243D01*
Y480970D01*
X406926D01*
Y487500D01*
D02*
G37*
%LPD*%
G36*
X408559Y476770D02*
X408669Y476765D01*
X408769Y476755D01*
X408844Y476745D01*
X408909Y476730D01*
X408954Y476720D01*
X408979Y476715D01*
X408989Y476710D01*
X409059Y476680D01*
X409119Y476650D01*
X409169Y476610D01*
X409214Y476575D01*
X409249Y476540D01*
X409274Y476510D01*
X409289Y476490D01*
X409294Y476485D01*
X409334Y476425D01*
X409359Y476360D01*
X409379Y476300D01*
X409394Y476240D01*
X409404Y476190D01*
X409409Y476150D01*
Y476125D01*
Y476115D01*
X409404Y476050D01*
X409399Y475985D01*
X409384Y475930D01*
X409369Y475885D01*
X409354Y475845D01*
X409344Y475815D01*
X409334Y475795D01*
X409329Y475790D01*
X409299Y475740D01*
X409269Y475700D01*
X409234Y475660D01*
X409204Y475630D01*
X409174Y475605D01*
X409154Y475590D01*
X409139Y475580D01*
X409134Y475575D01*
X409089Y475550D01*
X409039Y475525D01*
X408994Y475510D01*
X408944Y475495D01*
X408904Y475485D01*
X408874Y475475D01*
X408854Y475470D01*
X408844D01*
X408799Y475465D01*
X408749Y475460D01*
X408634Y475455D01*
X407544D01*
Y476775D01*
X408429D01*
X408559Y476770D01*
D02*
G37*
G36*
X408519Y478385D02*
X408574Y478380D01*
X408629Y478375D01*
X408679D01*
X408719Y478370D01*
X408759Y478365D01*
X408819Y478355D01*
X408859Y478345D01*
X408884Y478340D01*
X408894Y478335D01*
X408954Y478310D01*
X409009Y478280D01*
X409049Y478250D01*
X409089Y478215D01*
X409119Y478185D01*
X409139Y478160D01*
X409149Y478140D01*
X409154Y478135D01*
X409184Y478080D01*
X409209Y478020D01*
X409224Y477965D01*
X409239Y477915D01*
X409244Y477870D01*
X409249Y477830D01*
Y477810D01*
Y477800D01*
X409244Y477725D01*
X409234Y477660D01*
X409219Y477600D01*
X409199Y477555D01*
X409179Y477515D01*
X409164Y477485D01*
X409154Y477465D01*
X409149Y477460D01*
X409109Y477415D01*
X409059Y477375D01*
X409014Y477345D01*
X408964Y477315D01*
X408919Y477295D01*
X408884Y477280D01*
X408864Y477275D01*
X408854Y477270D01*
X408794Y477255D01*
X408719Y477245D01*
X408639Y477240D01*
X408559Y477235D01*
X408489Y477230D01*
X407544D01*
Y478390D01*
X408454D01*
X408519Y478385D01*
D02*
G37*
G36*
X367067Y476220D02*
X367062Y476110D01*
X367057Y476015D01*
X367042Y475935D01*
X367032Y475870D01*
X367017Y475815D01*
X367002Y475780D01*
X366997Y475760D01*
X366992Y475750D01*
X366952Y475675D01*
X366902Y475615D01*
X366847Y475555D01*
X366797Y475510D01*
X366752Y475475D01*
X366712Y475445D01*
X366687Y475430D01*
X366682Y475425D01*
X366677D01*
X366597Y475385D01*
X366512Y475360D01*
X366432Y475340D01*
X366357Y475325D01*
X366292Y475315D01*
X366242Y475310D01*
X366197D01*
X366102Y475315D01*
X366017Y475330D01*
X365942Y475350D01*
X365882Y475375D01*
X365837Y475395D01*
X365802Y475415D01*
X365782Y475430D01*
X365777Y475435D01*
X365732Y475485D01*
X365697Y475535D01*
X365672Y475590D01*
X365657Y475635D01*
X365647Y475680D01*
X365637Y475715D01*
Y475735D01*
Y475745D01*
X365642Y475790D01*
X365647Y475835D01*
X365657Y475870D01*
X365672Y475905D01*
X365682Y475930D01*
X365692Y475955D01*
X365697Y475965D01*
X365702Y475970D01*
X365727Y476005D01*
X365757Y476035D01*
X365817Y476085D01*
X365847Y476100D01*
X365867Y476110D01*
X365882Y476120D01*
X365887D01*
X365937Y476140D01*
X366002Y476160D01*
X366072Y476175D01*
X366137Y476190D01*
X366197Y476200D01*
X366252Y476210D01*
X366272D01*
X366282Y476215D01*
X366297D01*
X366392Y476230D01*
X366477Y476245D01*
X366557Y476260D01*
X366632Y476275D01*
X366702Y476290D01*
X366767Y476305D01*
X366822Y476320D01*
X366872Y476335D01*
X366917Y476345D01*
X366957Y476360D01*
X366992Y476370D01*
X367017Y476380D01*
X367042Y476385D01*
X367057Y476390D01*
X367062Y476395D01*
X367067D01*
Y476220D01*
D02*
G37*
G36*
X416882Y477450D02*
X416942Y477445D01*
X417057Y477415D01*
X417157Y477370D01*
X417242Y477320D01*
X417307Y477270D01*
X417362Y477225D01*
X417377Y477210D01*
X417392Y477195D01*
X417397Y477190D01*
X417402Y477185D01*
X417442Y477135D01*
X417482Y477075D01*
X417537Y476950D01*
X417582Y476820D01*
X417607Y476695D01*
X417617Y476635D01*
X417627Y476580D01*
X417632Y476535D01*
Y476490D01*
X417637Y476455D01*
Y476430D01*
Y476410D01*
Y476405D01*
Y476305D01*
X417627Y476215D01*
X417617Y476130D01*
X417602Y476050D01*
X417582Y475975D01*
X417562Y475910D01*
X417542Y475850D01*
X417522Y475795D01*
X417497Y475750D01*
X417477Y475710D01*
X417457Y475675D01*
X417437Y475645D01*
X417422Y475625D01*
X417412Y475610D01*
X417407Y475600D01*
X417402Y475595D01*
X417357Y475550D01*
X417312Y475510D01*
X417262Y475470D01*
X417212Y475440D01*
X417112Y475395D01*
X417022Y475365D01*
X416942Y475345D01*
X416907Y475340D01*
X416877Y475335D01*
X416852Y475330D01*
X416817D01*
X416752Y475335D01*
X416692Y475340D01*
X416577Y475370D01*
X416477Y475415D01*
X416392Y475465D01*
X416327Y475510D01*
X416272Y475555D01*
X416257Y475570D01*
X416242Y475585D01*
X416237Y475590D01*
X416232Y475595D01*
X416192Y475650D01*
X416157Y475705D01*
X416097Y475830D01*
X416057Y475965D01*
X416032Y476090D01*
X416022Y476150D01*
X416012Y476210D01*
X416007Y476260D01*
Y476305D01*
X416002Y476340D01*
Y476365D01*
Y476385D01*
Y476390D01*
X416007Y476485D01*
X416012Y476580D01*
X416022Y476665D01*
X416037Y476740D01*
X416057Y476815D01*
X416077Y476880D01*
X416097Y476940D01*
X416117Y476990D01*
X416137Y477040D01*
X416157Y477080D01*
X416177Y477110D01*
X416197Y477140D01*
X416212Y477160D01*
X416222Y477180D01*
X416232Y477185D01*
Y477190D01*
X416277Y477235D01*
X416327Y477280D01*
X416372Y477315D01*
X416422Y477345D01*
X416522Y477390D01*
X416612Y477420D01*
X416692Y477440D01*
X416727Y477445D01*
X416757Y477450D01*
X416782Y477455D01*
X416817D01*
X416882Y477450D01*
D02*
G37*
D10*
X386500Y313998D02*
Y308000D01*
X390499D01*
X392498D02*
Y313998D01*
X394497Y311999D01*
X396497Y313998D01*
Y308000D01*
X398496Y312998D02*
X399496Y313998D01*
X401495D01*
X402495Y312998D01*
Y311999D01*
X401495Y310999D01*
X400495D01*
X401495D01*
X402495Y309999D01*
Y309000D01*
X401495Y308000D01*
X399496D01*
X398496Y309000D01*
X404494Y312998D02*
X405494Y313998D01*
X407493D01*
X408493Y312998D01*
Y311999D01*
X407493Y310999D01*
X408493Y309999D01*
Y309000D01*
X407493Y308000D01*
X405494D01*
X404494Y309000D01*
Y309999D01*
X405494Y310999D01*
X404494Y311999D01*
Y312998D01*
X405494Y310999D02*
X407493D01*
X414491Y313998D02*
X412492Y312998D01*
X410492Y310999D01*
Y309000D01*
X411492Y308000D01*
X413491D01*
X414491Y309000D01*
Y309999D01*
X413491Y310999D01*
X410492D01*
X275502Y420499D02*
X274502Y419499D01*
Y417500D01*
X275502Y416500D01*
X276501D01*
X277501Y417500D01*
Y419499D01*
X278501Y420499D01*
X279500D01*
X280500Y419499D01*
Y417500D01*
X279500Y416500D01*
X280500Y422498D02*
Y424497D01*
Y423498D01*
X274502D01*
X275502Y422498D01*
X287650Y407150D02*
Y413148D01*
X290649D01*
X291649Y412148D01*
Y410149D01*
X290649Y409149D01*
X287650D01*
X289649D02*
X291649Y407150D01*
X297647Y413148D02*
X293648D01*
Y410149D01*
X295647Y411149D01*
X296647D01*
X297647Y410149D01*
Y408150D01*
X296647Y407150D01*
X294648D01*
X293648Y408150D01*
X367000Y443000D02*
Y448998D01*
X369999D01*
X370999Y447998D01*
Y445999D01*
X369999Y444999D01*
X367000D01*
X368999D02*
X370999Y443000D01*
X375997D02*
Y448998D01*
X372998Y445999D01*
X376997D01*
X362800Y462400D02*
Y468398D01*
X365799D01*
X366799Y467398D01*
Y465399D01*
X365799Y464399D01*
X362800D01*
X364799D02*
X366799Y462400D01*
X368798Y467398D02*
X369798Y468398D01*
X371797D01*
X372797Y467398D01*
Y466399D01*
X371797Y465399D01*
X370797D01*
X371797D01*
X372797Y464399D01*
Y463400D01*
X371797Y462400D01*
X369798D01*
X368798Y463400D01*
X456500Y345000D02*
Y350998D01*
X459499D01*
X460499Y349998D01*
Y347999D01*
X459499Y346999D01*
X456500D01*
X458499D02*
X460499Y345000D01*
X466497D02*
X462498D01*
X466497Y348999D01*
Y349998D01*
X465497Y350998D01*
X463498D01*
X462498Y349998D01*
X438000Y419500D02*
Y425498D01*
X440999D01*
X441999Y424498D01*
Y422499D01*
X440999Y421499D01*
X438000D01*
X439999D02*
X441999Y419500D01*
X443998D02*
X445997D01*
X444998D01*
Y425498D01*
X443998Y424498D01*
X229000Y378000D02*
Y383998D01*
X231999D01*
X232999Y382998D01*
Y380999D01*
X231999Y379999D01*
X229000D01*
X234998Y382998D02*
X235998Y383998D01*
X237997D01*
X238997Y382998D01*
Y379000D01*
X237997Y378000D01*
X235998D01*
X234998Y379000D01*
Y382998D01*
X451100Y474900D02*
Y480898D01*
X453099Y478899D01*
X455099Y480898D01*
Y474900D01*
X457098Y480898D02*
Y474900D01*
Y476899D01*
X461097Y480898D01*
X458098Y477899D01*
X461097Y474900D01*
X463096D02*
X465096D01*
X464096D01*
Y480898D01*
X463096Y479898D01*
X276000Y325498D02*
Y319500D01*
X278999D01*
X279999Y320500D01*
Y324498D01*
X278999Y325498D01*
X276000D01*
X284997Y319500D02*
Y325498D01*
X281998Y322499D01*
X285997D01*
X309000Y331498D02*
Y325500D01*
X311999D01*
X312999Y326500D01*
Y330498D01*
X311999Y331498D01*
X309000D01*
X314998Y330498D02*
X315998Y331498D01*
X317997D01*
X318997Y330498D01*
Y329499D01*
X317997Y328499D01*
X316997D01*
X317997D01*
X318997Y327499D01*
Y326500D01*
X317997Y325500D01*
X315998D01*
X314998Y326500D01*
X227500Y331998D02*
Y326000D01*
X230499D01*
X231499Y327000D01*
Y330998D01*
X230499Y331998D01*
X227500D01*
X237497Y326000D02*
X233498D01*
X237497Y329999D01*
Y330998D01*
X236497Y331998D01*
X234498D01*
X233498Y330998D01*
X241100Y373898D02*
Y367900D01*
X244099D01*
X245099Y368900D01*
Y372898D01*
X244099Y373898D01*
X241100D01*
X247098Y367900D02*
X249097D01*
X248098D01*
Y373898D01*
X247098Y372898D01*
X300799Y474198D02*
X299799Y475198D01*
X297800D01*
X296800Y474198D01*
Y470200D01*
X297800Y469200D01*
X299799D01*
X300799Y470200D01*
X302798Y474198D02*
X303798Y475198D01*
X305797D01*
X306797Y474198D01*
Y473199D01*
X305797Y472199D01*
X306797Y471199D01*
Y470200D01*
X305797Y469200D01*
X303798D01*
X302798Y470200D01*
Y471199D01*
X303798Y472199D01*
X302798Y473199D01*
Y474198D01*
X303798Y472199D02*
X305797D01*
X260999Y472498D02*
X259999Y473498D01*
X258000D01*
X257000Y472498D01*
Y468500D01*
X258000Y467500D01*
X259999D01*
X260999Y468500D01*
X262998Y473498D02*
X266997D01*
Y472498D01*
X262998Y468500D01*
Y467500D01*
X248999Y407498D02*
X247999Y408498D01*
X246000D01*
X245000Y407498D01*
Y403500D01*
X246000Y402500D01*
X247999D01*
X248999Y403500D01*
X254997Y408498D02*
X252997Y407498D01*
X250998Y405499D01*
Y403500D01*
X251998Y402500D01*
X253997D01*
X254997Y403500D01*
Y404499D01*
X253997Y405499D01*
X250998D01*
X322499Y387498D02*
X321499Y388498D01*
X319500D01*
X318500Y387498D01*
Y383500D01*
X319500Y382500D01*
X321499D01*
X322499Y383500D01*
X328497Y388498D02*
X324498D01*
Y385499D01*
X326497Y386499D01*
X327497D01*
X328497Y385499D01*
Y383500D01*
X327497Y382500D01*
X325498D01*
X324498Y383500D01*
X345499Y334498D02*
X344499Y335498D01*
X342500D01*
X341500Y334498D01*
Y330500D01*
X342500Y329500D01*
X344499D01*
X345499Y330500D01*
X350497Y329500D02*
Y335498D01*
X347498Y332499D01*
X351497D01*
X408002Y408999D02*
X407002Y407999D01*
Y406000D01*
X408002Y405000D01*
X412000D01*
X413000Y406000D01*
Y407999D01*
X412000Y408999D01*
X408002Y410998D02*
X407002Y411998D01*
Y413997D01*
X408002Y414997D01*
X409001D01*
X410001Y413997D01*
Y412997D01*
Y413997D01*
X411001Y414997D01*
X412000D01*
X413000Y413997D01*
Y411998D01*
X412000Y410998D01*
X392999Y400998D02*
X391999Y401998D01*
X390000D01*
X389000Y400998D01*
Y397000D01*
X390000Y396000D01*
X391999D01*
X392999Y397000D01*
X398997Y396000D02*
X394998D01*
X398997Y399999D01*
Y400998D01*
X397997Y401998D01*
X395998D01*
X394998Y400998D01*
X406999Y468498D02*
X405999Y469498D01*
X404000D01*
X403000Y468498D01*
Y464500D01*
X404000Y463500D01*
X405999D01*
X406999Y464500D01*
X408998Y463500D02*
X410997D01*
X409998D01*
Y469498D01*
X408998Y468498D01*
X232999Y487498D02*
X230999D01*
X231999D01*
Y482500D01*
X230999Y481500D01*
X230000D01*
X229000Y482500D01*
X234998Y486498D02*
X235998Y487498D01*
X237997D01*
X238997Y486498D01*
Y482500D01*
X237997Y481500D01*
X235998D01*
X234998Y482500D01*
Y486498D01*
X311000Y409427D02*
Y403714D01*
X311286Y409427D02*
Y403714D01*
X311000Y409427D02*
X312428D01*
X311000Y403714D02*
X312428D01*
X315485Y409999D02*
X313485Y402000D01*
X317199Y409999D02*
X315199Y402000D01*
X313485Y406856D02*
X317484D01*
X313199Y405143D02*
X317199D01*
X318856Y402000D02*
X323426D01*
X328482Y407714D02*
X328196Y408285D01*
X327625Y408570D01*
X326768D01*
X326197Y408285D01*
X325911Y407999D01*
X325625Y407142D01*
Y406285D01*
X325911Y405714D01*
X326482Y405428D01*
X327339D01*
X327911Y405714D01*
X328196Y406285D01*
X326768Y408570D02*
X326197Y407999D01*
X325911Y407142D01*
Y406285D01*
X326197Y405714D01*
X326482Y405428D01*
X328482Y408570D02*
X328196Y406285D01*
Y405714D01*
X328768Y405428D01*
X329339D01*
X329910Y406000D01*
X330196Y406856D01*
Y407428D01*
X329910Y408285D01*
X329625Y408856D01*
X329053Y409427D01*
X328482Y409713D01*
X327625Y409999D01*
X326768D01*
X325911Y409713D01*
X325340Y409427D01*
X324768Y408856D01*
X324483Y408285D01*
X324197Y407428D01*
Y406571D01*
X324483Y405714D01*
X324768Y405143D01*
X325340Y404571D01*
X325911Y404286D01*
X326768Y404000D01*
X327625D01*
X328482Y404286D01*
X329053Y404571D01*
X329339Y404857D01*
X328768Y408570D02*
X328482Y406285D01*
Y405714D01*
X328768Y405428D01*
X332881Y409427D02*
Y403714D01*
X333167Y409427D02*
Y403714D01*
X331738Y409427D02*
X333167D01*
X331738Y403714D02*
X333167D01*
D30*
X394685Y356339D02*
G03*
X394685Y356339I-1181J0D01*
G01*
D31*
X385492Y360118D02*
G03*
X385492Y360118I-492J0D01*
G01*
X464563Y466000D02*
G03*
X464563Y466000I-492J0D01*
G01*
D32*
X397500Y360276D02*
G03*
X402500Y360276I2500J0D01*
G01*
X343496Y456000D02*
G03*
X343496Y456000I-31496J0D01*
G01*
X271843Y390000D02*
G03*
X271843Y390000I-9843J0D01*
G01*
X433843Y398000D02*
G03*
X433843Y398000I-9843J0D01*
G01*
X405842Y380000D02*
G03*
X405842Y380000I-9843J0D01*
G01*
X427843Y454000D02*
G03*
X427843Y454000I-9843J0D01*
G01*
X389567Y319724D02*
X410433D01*
X402500Y360276D02*
X410433D01*
X389567D02*
X397500D01*
X410433Y319724D02*
Y360276D01*
X389567Y319724D02*
Y360276D01*
X271000Y415000D02*
Y425000D01*
X211000Y415000D02*
Y425000D01*
X271000D01*
X211000Y415000D02*
X271000D01*
X287000Y396000D02*
X290000D01*
X287000Y376000D02*
Y396000D01*
Y376000D02*
X293000D01*
Y396000D01*
X290000D02*
X293000D01*
X290000Y375100D02*
Y376000D01*
Y396000D02*
Y396900D01*
X392000Y436000D02*
Y439000D01*
X372000D02*
X392000D01*
X372000Y433000D02*
Y439000D01*
Y433000D02*
X392000D01*
Y436000D01*
X371100D02*
X372000D01*
X392000D02*
X392900D01*
X390000Y456000D02*
Y459000D01*
X370000D02*
X390000D01*
X370000Y453000D02*
Y459000D01*
Y453000D02*
X390000D01*
Y456000D01*
X369100D02*
X370000D01*
X390000D02*
X390900D01*
X454000Y416000D02*
X457000D01*
Y436000D01*
X451000D02*
X457000D01*
X451000Y416000D02*
Y436000D01*
Y416000D02*
X454000D01*
Y436000D02*
Y436900D01*
Y415100D02*
Y416000D01*
X450488Y450488D02*
Y471512D01*
X461512Y450488D02*
Y471512D01*
X450488Y450488D02*
X461512D01*
X450488Y471512D02*
X461512D01*
X273512Y327567D02*
Y348433D01*
X262488Y327567D02*
Y348433D01*
Y327567D02*
X273512D01*
X305512D02*
Y348433D01*
X294488Y327567D02*
Y348433D01*
Y327567D02*
X305512D01*
X225512D02*
Y348433D01*
X214488Y327567D02*
Y348433D01*
Y327567D02*
X225512D01*
X240488Y329567D02*
Y350433D01*
X251512Y329567D02*
Y350433D01*
X240488D02*
X251512D01*
X257000Y440000D02*
X267000D01*
X257000D02*
Y460000D01*
X267000D01*
Y440000D02*
Y460000D01*
X327000Y380000D02*
X337000D01*
Y360000D02*
Y380000D01*
X327000Y360000D02*
X337000D01*
X327000D02*
Y380000D01*
Y342000D02*
X337000D01*
Y322000D02*
Y342000D01*
X327000Y322000D02*
X337000D01*
X327000D02*
Y342000D01*
X186000Y438283D02*
X218677D01*
X236000D02*
X243480D01*
Y447339D01*
X186000Y438283D02*
Y473717D01*
X243480D01*
Y464661D02*
Y473717D01*
X215000Y395000D02*
X225000D01*
Y375000D02*
Y395000D01*
X215000Y375000D02*
X225000D01*
X215000D02*
Y395000D01*
X454000Y364000D02*
X457000D01*
Y384000D01*
X451000D02*
X457000D01*
X451000Y364000D02*
Y384000D01*
Y364000D02*
X454000D01*
Y384000D02*
Y384900D01*
Y363100D02*
Y364000D01*
D33*
X274697Y455999D02*
X278633D01*
X276665Y457967D02*
Y454031D01*
X277650Y390001D02*
X273714D01*
X275682Y388033D02*
Y391969D01*
X424001Y382350D02*
Y386286D01*
X422033Y384318D02*
X425969D01*
X380350Y379999D02*
X384286D01*
X382318Y381967D02*
Y378031D01*
X433650Y454001D02*
X429714D01*
X431682Y452033D02*
Y455969D01*
D34*
X268025Y347255D02*
D03*
X300042Y347254D02*
D03*
X220018Y347255D02*
D03*
X245978Y330749D02*
D03*
M02*
